<?xml version="1.0" encoding="UTF-8" standalone="no"?>
<svg
   id="Mesa_2"
   data-name="Mesa 2"
   viewBox="0 0 160 160"
   version="1.1"
   width="160"
   height="160"
   xmlns="http://www.w3.org/2000/svg"
   xmlns:svg="http://www.w3.org/2000/svg">
  <defs
     id="defs1">
    <style
       id="style1">
      .cls-1 {
        fill: #194584;
      }

      .cls-2 {
        fill: #1c4da3;
      }

      .cls-3 {
        fill: #fff;
      }

      .cls-4 {
        fill: #f3f4f6;
      }

      .cls-5 {
        fill: none;
        stroke: #fff;
        stroke-miterlimit: 10;
      }

      .cls-6 {
        fill: #3b82f6;
      }

      .cls-7 {
        fill: #2563eb;
      }

      .cls-8 {
        fill: #21589b;
      }

      .cls-9 {
        fill: #2c73f2;
      }
    </style>
  </defs>
  <g
     id="Capa_9"
     data-name="Capa 9"
     transform="matrix(0.50591269,0,0,0.55317682,-179.28387,-234.09547)">
    <polygon
       class="cls-6"
       points="508.7,556.13 390.16,508.02 390.16,645.99 508.6,700.58 "
       id="polygon1" />
    <path
       class="cls-7"
       d="m 508.9,554.01 v 32.4 c 0,0 -118.74,-54.37 -118.74,-54.37 v -28.39 l 116.86,50.95 c 0.08,0.03 0.16,0.03 0.24,0.01 z"
       id="path1" />
    <polygon
       class="cls-8"
       points="628.03,513.98 508.8,557.55 508.7,700.58 628.03,653.01 "
       id="polygon2" />
    <polygon
       class="cls-1"
       points="508.9,586.41 508.9,555.61 628.13,513.98 627.24,541.36 "
       id="polygon3" />
    <path
       class="cls-2"
       d="m 668.38,495.61 0.02,9.17 c 0,0 -0.02,0.05 -0.04,0.06 l -161.14,59 c 0,0 -0.08,-0.01 -0.08,-0.06 v -9.11 c 0,0 0.02,-0.05 0.04,-0.06 l 149.66,-54.64 11.46,-4.42 c 0,0 0.08,0.01 0.08,0.06 z"
       id="path3" />
    <polygon
       class="cls-3"
       points="406.56,554.64 486.08,591.45 486.08,614.06 406.56,575.56 "
       id="polygon4" />
    <polygon
       class="cls-3"
       points="406.56,586.75 486.08,623.56 486.08,646.18 406.56,607.67 "
       id="polygon5" />
    <polygon
       class="cls-3"
       points="406.56,619.43 486.08,656.24 486.08,678.85 406.56,640.35 "
       id="polygon6" />
  </g>
  <path
     class="cls-9"
     d="m 77.284708,73.116814 v 4.635621 c 0,0.0332 -0.03036,0.05532 -0.0607,0.04425 L 2.5512856,42.194229 c -0.202365,-0.09957 -0.3339028,-0.315311 -0.3339028,-0.56424 v -3.767134 c 0,-0.442541 0.4148481,-0.735725 0.7841652,-0.564241 l 5.3070241,2.528018 68.6422339,32.720409 c 0.202364,0.09957 0.333902,0.315311 0.333902,0.56424 z"
     id="path12"
     style="stroke-width:0.529017" />
  <path
     class="cls-7"
     d="m 158.75182,40.213857 -5.73198,2.28462 -19.37646,7.733411 -55.468266,22.143668 -0.718396,0.287652 -0.111295,0.04425 c -0.04047,0.01104 -0.08095,0.01104 -0.121423,-0.0055 L 18.103042,44.517578 8.3035134,39.848767 2.4855174,37.636059 C 2.348922,37.575199 2.3590359,37.359472 2.5006906,37.309685 L 18.103037,31.197081 76.814205,9.9550905 78.17511,9.4627645 83.896983,7.3938831 c 0.03542,-0.016591 0.0759,-0.011042 0.111295,0 l 49.635092,21.5738949 25.1135,10.914179 c 0.13661,0.06086 0.13156,0.276587 -0.005,0.331907 z"
     id="path13"
     style="stroke-width:0.529017" />
  <path
     class="cls-1"
     d="m 84.367486,37.121598 c 2.119773,-1.194862 2.387907,-3.108853 0.622272,-4.276057 -1.765635,-1.167202 -4.86688,-1.161671 -6.981595,0 -2.129893,1.167204 -2.463794,3.086726 -0.718396,4.276057 1.760576,1.200394 4.942767,1.200394 7.077719,0 z"
     id="path14"
     style="stroke-width:0.529017" />
  <line
     class="cls-5"
     x1="82.814346"
     y1="37.248817"
     x2="90.590218"
     y2="67.402512"
     id="line14"
     style="stroke-width:0.529017" />
  <line
     class="cls-5"
     x1="90.423256"
     y1="66.616982"
     x2="90.423256"
     y2="121.76871"
     id="line15"
     style="stroke-width:0.529017" />
  <path
     class="cls-3"
     d="m 90.033708,121.16023 c 0.121424,1.08975 -0.586858,2.05228 -0.951114,3.01481 -0.344022,0.9072 -0.581801,1.85314 -0.708279,2.8212 -0.258015,1.95271 -0.086,3.94969 0.52109,5.80836 0.161892,0.49786 0.895466,0.28211 0.733573,-0.22128 -0.622272,-1.90292 -0.784164,-3.96074 -0.430025,-5.94665 0.177069,-0.99018 0.470498,-1.95271 0.880287,-2.85439 0.379435,-0.83529 0.824639,-1.65953 0.718397,-2.62759 -0.05565,-0.52552 -0.81452,-0.53105 -0.758868,0 v 0 z"
     id="path15"
     style="stroke-width:0.529017" />
  <path
     class="cls-3"
     d="m 90.109596,121.8019 c -0.131539,3.59013 0.01517,7.33513 1.664453,10.53802 0.237779,0.46468 0.895465,0.0498 0.657685,-0.42041 -1.583506,-3.07013 -1.689747,-6.68238 -1.56327,-10.12313 0.02023,-0.53659 -0.738632,-0.53106 -0.758868,0 v 0 z"
     id="path16"
     style="stroke-width:0.529017" />
  <path
     class="cls-3"
     d="m 90.195602,121.73552 c 0.101184,0.8187 0.556503,1.36635 1.09783,1.90846 0.581798,0.58637 1.062416,1.20593 1.426674,1.97484 0.728514,1.54337 0.981471,3.30801 1.224308,5.00625 0.0759,0.52554 0.804402,0.30425 0.733573,-0.22126 -0.23272,-1.64848 -0.500853,-3.31353 -1.138304,-4.84584 -0.298488,-0.71359 -0.69816,-1.38847 -1.188894,-1.96377 -0.46544,-0.54212 -1.295136,-1.06763 -1.39126,-1.8642 -0.06576,-0.51999 -0.824637,-0.53106 -0.758869,0 v 0 z"
     id="path17"
     style="stroke-width:0.529017" />
  <path
     class="cls-3"
     d="m 90.382788,122.02318 c 0.156834,1.88079 0.344021,3.83351 1.315374,5.44879 0.500854,0.82976 1.057358,1.56549 1.350787,2.52248 0.298489,0.96807 0.409789,1.98591 0.516031,2.99822 0.05565,0.52553 0.814519,0.53105 0.758868,0 -0.207423,-1.95271 -0.510971,-3.71735 -1.583506,-5.33815 -0.536267,-0.81317 -0.951115,-1.63187 -1.188895,-2.611 -0.237779,-0.97912 -0.328844,-2.00803 -0.414849,-3.02588 -0.04553,-0.52551 -0.804401,-0.53104 -0.758869,0 v 0 z"
     id="path18"
     style="stroke-width:0.529017" />
  <path
     class="cls-3"
     d="m 90.155128,122.23891 c -0.298488,2.4893 -0.708278,5.11689 -0.409789,7.62831 0.252957,2.174 1.391259,3.95522 2.802756,5.4488 0.349081,0.37062 0.890406,-0.21575 0.536267,-0.58637 -1.426674,-1.51017 -2.504268,-3.2748 -2.635804,-5.49858 -0.13154,-2.22377 0.192247,-4.69094 0.470498,-6.99216 0.0607,-0.52551 -0.69816,-0.52551 -0.758869,0 v 0 z"
     id="path19"
     style="stroke-width:0.529017" />
  <path
     class="cls-3"
     d="m 89.957822,124.8831 c -0.768986,2.37866 -1.345728,4.7186 -0.602036,7.20236 0.718396,2.39526 2.231074,4.33139 3.607157,6.30069 0.29343,0.42041 0.951116,0.005 0.657687,-0.42041 -1.285019,-1.84762 -2.742047,-3.66757 -3.460443,-5.88581 -0.784165,-2.41184 -0.222601,-4.65222 0.531208,-6.97556 0.161892,-0.50339 -0.571682,-0.71913 -0.733573,-0.22127 z"
     id="path20"
     style="stroke-width:0.529017" />
  <path
     class="cls-3"
     d="m 90.701514,123.72696 c 0.743692,2.13526 1.411496,4.29265 1.998356,6.48323 0.607094,2.26803 1.173716,4.63563 0.784163,7.00876 -0.086,0.51999 0.642509,0.74679 0.733574,0.22126 0.389553,-2.35653 -0.0607,-4.67987 -0.652627,-6.95342 -0.591918,-2.27356 -1.330552,-4.68542 -2.129893,-6.98109 -0.172011,-0.49234 -0.905584,-0.28213 -0.733573,0.22126 z"
     id="path21"
     style="stroke-width:0.529017" />
  <path
     class="cls-3"
     d="m 91.349082,127.62132 c 0.581799,3.5348 1.219249,7.19683 3.136658,10.19506 0.278253,0.437 0.935939,0.0221 0.657687,-0.42042 -1.881995,-2.9429 -2.494149,-6.52748 -3.060772,-10.00143 -0.086,-0.52553 -0.819579,-0.30425 -0.733573,0.22127 v 0 z"
     id="path22"
     style="stroke-width:0.529017" />
  <path
     class="cls-3"
     d="m 90.433379,129.03193 c 0.389554,4.13222 1.947765,8.03765 4.47227,11.14651 0.323783,0.39829 0.860051,-0.18808 0.536266,-0.58636 -2.382848,-2.93184 -3.885408,-6.65472 -4.249666,-10.56015 -0.05059,-0.52552 -0.809461,-0.53105 -0.75887,0 z"
     id="path23"
     style="stroke-width:0.529017" />
  <path
     class="cls-3"
     d="m 90.14501,123.11847 c 1.588565,2.08547 3.086067,4.31478 4.042241,6.83726 0.480618,1.26678 0.829698,2.60547 0.976413,3.96629 0.151774,1.43825 0.02023,2.88204 -0.121424,4.31476 -0.05059,0.53106 0.708278,0.52553 0.758868,0 0.151775,-1.52123 0.273194,-3.0314 0.09612,-4.55263 -0.161891,-1.39401 -0.51603,-2.74929 -1.011825,-4.04373 -1.001707,-2.62759 -2.544741,-4.9288 -4.199075,-7.10279 -0.313667,-0.40935 -0.844876,0.17702 -0.536268,0.58637 v 0 z"
     id="path24"
     style="stroke-width:0.529017" />
  <path
     class="cls-3"
     d="m 92.204075,126.29923 c 0.495795,3.6731 2.807815,6.73217 3.156895,10.44399 0.05059,0.52551 0.80946,0.53104 0.758868,0 -0.354138,-3.7948 -2.676278,-6.91472 -3.18219,-10.66526 -0.07083,-0.52551 -0.804402,-0.30425 -0.733573,0.22127 z"
     id="path25"
     style="stroke-width:0.529017" />
  <path
     class="cls-3"
     d="m 89.249544,131.43271 c -0.207424,1.07869 -0.197306,2.24037 -0.121423,3.33566 0.06576,0.94593 0.34402,1.93611 1.148421,2.42291 0.424967,0.26 0.80946,-0.45913 0.384493,-0.71913 -0.647568,-0.39275 -0.763927,-1.26123 -0.789222,-1.99696 -0.03542,-0.93487 -0.06576,-1.90293 0.111294,-2.82674 0.101175,-0.51998 -0.632391,-0.74125 -0.733574,-0.22126 v 0 z"
     id="path26"
     style="stroke-width:0.529017" />
  <path
     class="cls-3"
     d="m 89.411436,131.64845 c -0.308606,1.06763 -0.09612,2.19059 0.283312,3.2029 0.379434,1.01231 0.925819,2.06888 1.50762,3.02033 0.268133,0.44256 0.925819,0.0276 0.657686,-0.4204 -0.52615,-0.86295 -1.016884,-1.77569 -1.39126,-2.72716 -0.354139,-0.89615 -0.596977,-1.89187 -0.318725,-2.8544 0.146714,-0.50892 -0.586859,-0.73018 -0.733574,-0.22127 v 0 z"
     id="path27"
     style="stroke-width:0.529017" />
  <path
     class="cls-3"
     d="m 88.961174,132.1795 c 0.536268,1.93612 0.834756,3.92756 0.880289,5.95219 0.01007,0.53105 0.768987,0.53658 0.758868,0 -0.05059,-2.09101 -0.354138,-4.17095 -0.905583,-6.17345 -0.141656,-0.50893 -0.87523,-0.29319 -0.733574,0.22126 z"
     id="path28"
     style="stroke-width:0.529017" />
  <path
     class="cls-3"
     d="m 88.40467,131.7093 c 0.252956,2.39526 1.153481,4.64115 2.615569,6.45558 0.323784,0.40382 0.860051,-0.18809 0.536268,-0.58637 -1.315374,-1.63187 -2.165307,-3.70628 -2.392968,-5.86921 -0.0253,-0.22679 -0.156833,-0.41488 -0.379434,-0.41488 -0.187188,0 -0.404731,0.19361 -0.379435,0.41488 z"
     id="path29"
     style="stroke-width:0.529017" />
  <path
     class="cls-3"
     d="m 89.699807,132.76034 c 0.753809,2.14633 1.649275,4.22073 2.691454,6.2177 0.242839,0.46468 0.895466,0.0443 0.657688,-0.42041 -1.006766,-1.93059 -1.881996,-3.94416 -2.61557,-6.01856 -0.17201,-0.49234 -0.905584,-0.27659 -0.733572,0.22127 z"
     id="path30"
     style="stroke-width:0.529017" />
  <path
     class="cls-3"
     d="m 90.08936,131.4991 c 0.409789,2.42844 0.971352,4.82369 1.67457,7.16917 0.151774,0.50338 0.885348,0.28766 0.733574,-0.22127 -0.703218,-2.34547 -1.264783,-4.74073 -1.674571,-7.16917 -0.09107,-0.52552 -0.819579,-0.30424 -0.733573,0.22127 z"
     id="path31"
     style="stroke-width:0.529017" />
  <path
     class="cls-3"
     d="m 89.537915,129.18682 c 0.768987,3.05908 1.785871,6.03516 3.030416,8.89508 0.207425,0.48126 0.86511,0.0609 0.657687,-0.42041 -1.21419,-2.79907 -2.200721,-5.70878 -2.949472,-8.69594 -0.131539,-0.51446 -0.860051,-0.29318 -0.733572,0.22127 v 0 z"
     id="path32"
     style="stroke-width:0.529017" />
  <path
     class="cls-3"
     d="m 92.411498,130.5255 c 0.875229,2.65526 1.401379,5.42668 1.548094,8.24234 0.0253,0.53105 0.784163,0.53658 0.758868,0 -0.146714,-2.89311 -0.672865,-5.74197 -1.573388,-8.4636 -0.166951,-0.49786 -0.900524,-0.28212 -0.733574,0.22126 z"
     id="path33"
     style="stroke-width:0.529017" />
  <path
     class="cls-3"
     d="m 94.000065,133.048 c -0.323785,1.95824 -0.490735,3.94414 -0.480618,5.9411 0,0.53107 0.75887,0.53659 0.75887,0 -0.0051,-1.91952 0.141655,-3.82798 0.455321,-5.71984 0.086,-0.51998 -0.64251,-0.74679 -0.733573,-0.22126 z"
     id="path34"
     style="stroke-width:0.529017" />
  <path
     class="cls-3"
     d="m 94.591982,132.45055 c 0.263075,1.65954 0.09107,3.36332 -0.455321,4.93435 -0.07083,0.2102 0.08095,0.45361 0.263076,0.50892 0.212482,0.0664 0.394609,-0.0774 0.465438,-0.28764 0.596978,-1.71486 0.743692,-3.57353 0.455322,-5.37689 -0.03542,-0.22127 -0.283312,-0.34297 -0.46544,-0.28765 -0.212484,0.0664 -0.298488,0.28765 -0.263075,0.50891 z"
     id="path35"
     style="stroke-width:0.529017" />
  <path
     class="cls-3"
     d="m 94.865175,133.36331 c 0.268133,1.47698 0.08095,3.03693 -0.531208,4.38668 -0.217542,0.47573 0.440144,0.89615 0.657685,0.42042 0.70322,-1.55996 0.915704,-3.31906 0.607096,-5.02839 -0.09612,-0.52551 -0.824637,-0.30424 -0.733573,0.22129 z"
     id="path36"
     style="stroke-width:0.529017" />
  <path
     class="cls-3"
     d="m 93.681339,133.36331 c 0.09107,1.33868 0.04048,2.68844 -0.156833,4.01052 -0.03542,0.22127 0.05059,0.44807 0.263075,0.50892 0.182128,0.0554 0.435084,-0.0664 0.46544,-0.28765 0.212483,-1.39953 0.278252,-2.81566 0.182128,-4.23179 -0.01517,-0.22129 -0.161892,-0.41489 -0.379434,-0.41489 -0.192247,0 -0.394612,0.18809 -0.379435,0.41489 v 0 z"
     id="path37"
     style="stroke-width:0.529017" />
  <path
     class="cls-3"
     d="m 93.170368,132.29568 c 0,1.42718 0,2.85438 0,4.28158 0,0.53658 0.758868,0.53658 0.758868,0 0,-1.4272 0,-2.8544 0,-4.28158 0,-0.53658 -0.758868,-0.53658 -0.758868,0 z"
     id="path38"
     style="stroke-width:0.529017" />
  <path
     class="cls-3"
     d="m 92.968002,131.7591 c 0.086,1.96376 -0.156832,3.91095 -0.718396,5.77516 -0.151773,0.50893 0.5818,0.72465 0.733573,0.22127 0.581801,-1.93059 0.834757,-3.96628 0.748751,-5.99643 -0.0253,-0.53105 -0.784164,-0.53659 -0.758868,0 v 0 z"
     id="path39"
     style="stroke-width:0.529017" />
  <path
     class="cls-3"
     d="m 91.53121,132.82672 c 0.141656,1.83655 0.17707,3.67863 0.106237,5.51517 -0.02023,0.53659 0.738633,0.53106 0.758869,0 0.07083,-1.84207 0.03542,-3.67862 -0.106238,-5.51517 -0.04047,-0.52552 -0.799341,-0.53104 -0.758868,0 z"
     id="path40"
     style="stroke-width:0.529017" />
  <path
     class="cls-3"
     d="m 90.655981,129.45234 c -0.283311,2.30122 -0.136596,4.63562 0.46544,6.86492 0.136597,0.50892 0.870171,0.29319 0.733573,-0.22127 -0.561562,-2.07994 -0.728514,-4.27052 -0.465439,-6.42238 0.0253,-0.22127 -0.05059,-0.44254 -0.263075,-0.50892 -0.177069,-0.0553 -0.440143,0.0664 -0.465439,0.28765 v 0 z"
     id="path41"
     style="stroke-width:0.529017" />
  <path
     class="cls-3"
     d="m 90.468794,128.81618 c -0.172011,2.65526 0.086,5.32711 0.748751,7.8883 0.131538,0.51447 0.86511,0.2932 0.733574,-0.22126 -0.647569,-2.49483 -0.885349,-5.07816 -0.718398,-7.66704 0.03542,-0.53104 -0.723454,-0.53104 -0.758869,0 v 0 z"
     id="path42"
     style="stroke-width:0.529017" />
  <path
     class="cls-3"
     d="m 90.180423,129.03193 c 0.268135,2.67184 0.748751,5.31049 1.446911,7.88277 0.136596,0.50892 0.87017,0.29318 0.733574,-0.22126 -0.677924,-2.50591 -1.15854,-5.06711 -1.421615,-7.66704 -0.05059,-0.52552 -0.81452,-0.53105 -0.75887,0 v 0 z"
     id="path43"
     style="stroke-width:0.529017" />
  <path
     class="cls-4"
     d="m 91.045534,124.20269 c 1.168658,1.75911 1.902232,3.83905 2.099538,6.00198 0.0253,0.26552 0.404731,0.26552 0.379434,0 -0.202365,-2.23484 -0.940997,-4.39224 -2.150129,-6.21218 -0.141656,-0.21574 -0.470498,-0.005 -0.328843,0.2102 z"
     id="path44"
     style="stroke-width:0.529017" />
  <path
     class="cls-4"
     d="m 90.767283,126.42093 c -0.166952,0.39276 -0.303548,0.80764 -0.389554,1.22805 -0.086,0.42042 -0.16695,0.89062 -0.101174,1.31657 0.06576,0.42594 0.354138,0.76891 0.586859,1.10081 0.263073,0.37616 0.526149,0.75233 0.784164,1.12849 0.0607,0.0885 0.161892,0.13829 0.258016,0.0719 0.08095,-0.0498 0.131539,-0.19362 0.06576,-0.28212 -0.242838,-0.3485 -0.480618,-0.69147 -0.723456,-1.03998 -0.121424,-0.17148 -0.242838,-0.34296 -0.359198,-0.51997 -0.101185,-0.14937 -0.197306,-0.30979 -0.232719,-0.49234 -0.03542,-0.18254 -0.0253,-0.38722 0,-0.5753 0.0253,-0.18808 0.05059,-0.38722 0.09107,-0.58083 0.08095,-0.39829 0.197306,-0.78552 0.354139,-1.15062 0.04553,-0.0995 0.0253,-0.22127 -0.06576,-0.28211 -0.08095,-0.0498 -0.217543,-0.0276 -0.258015,0.0719 v 0 z"
     id="path45"
     style="stroke-width:0.529017" />
  <path
     class="cls-4"
     d="m 89.482264,129.50766 c -0.197305,1.20593 0.242837,2.38419 0.900524,3.33012 0.187189,0.26553 0.389553,0.51999 0.602037,0.76892 0.166951,0.19361 0.435084,-0.0995 0.268134,-0.29318 -0.844874,-0.97913 -1.634099,-2.27909 -1.406438,-3.69523 0.02023,-0.11064 -0.0253,-0.22127 -0.131539,-0.25445 -0.09107,-0.0276 -0.217543,0.0332 -0.23272,0.14382 z"
     id="path46"
     style="stroke-width:0.529017" />
  <path
     class="cls-4"
     d="m 93.423324,132.35098 c 0.273193,0.64723 0.546385,1.29997 0.80946,1.95273 0.242839,0.59742 0.531209,1.22251 0.510971,1.89739 -0.01007,0.26553 0.369317,0.26553 0.379436,0 0.02023,-0.72466 -0.273192,-1.38847 -0.531209,-2.03569 -0.273192,-0.6804 -0.551445,-1.35529 -0.834755,-2.02462 -0.04553,-0.0995 -0.17707,-0.12726 -0.258016,-0.0719 -0.09612,0.0609 -0.111308,0.18253 -0.06578,0.28211 v 0 z"
     id="path47"
     style="stroke-width:0.529017" />
  <path
     class="cls-4"
     d="m 91.490738,135.62026 c 0.146713,0.58084 0.40473,1.11742 0.74875,1.58762 0.09612,0.12725 0.197306,0.24893 0.303549,0.3651 0.07083,0.0774 0.197305,0.083 0.268133,0 0.07083,-0.083 0.0759,-0.21021 0,-0.29318 -0.09107,-0.0995 -0.18213,-0.20468 -0.263075,-0.30978 -0.02025,-0.0276 -0.04048,-0.0498 -0.05565,-0.0774 -0.01007,-0.0108 -0.02025,-0.0221 -0.0253,-0.0388 0,0 0.02023,0.0276 0.01007,0.0107 -0.0051,-0.0107 -0.01517,-0.0221 -0.02023,-0.0332 -0.03542,-0.0554 -0.0759,-0.1107 -0.111309,-0.17148 -0.07082,-0.11622 -0.136596,-0.23788 -0.197306,-0.3651 -0.03036,-0.0609 -0.05565,-0.12174 -0.086,-0.1881 -0.01517,-0.0276 -0.0253,-0.0609 -0.03542,-0.0885 0,0 -0.02023,-0.0388 -0.01517,-0.0443 0,0 0.02023,0.0498 0,0.005 0,-0.0107 -0.0051,-0.0166 -0.01007,-0.0276 -0.05565,-0.14935 -0.101175,-0.2987 -0.141656,-0.4536 -0.0253,-0.10517 -0.136596,-0.17702 -0.23272,-0.14382 -0.09612,0.0332 -0.161892,0.14382 -0.131539,0.25446 v 0 z"
     id="path48"
     style="stroke-width:0.529017" />
  <path
     class="cls-4"
     d="m 92.199016,132.93736 c -0.03036,0.697 0.131538,1.40506 0.46038,2.00803 0.09612,0.17149 0.202365,0.33743 0.323783,0.49232 0.06578,0.083 0.202365,0.0774 0.268135,0 0.0759,-0.0885 0.07082,-0.20467 0,-0.29317 -0.01517,-0.0221 -0.03036,-0.0387 -0.04553,-0.0609 0,0 -0.04553,-0.0664 -0.0253,-0.0333 -0.03036,-0.0387 -0.05565,-0.083 -0.086,-0.12725 -0.05565,-0.083 -0.106238,-0.17149 -0.151775,-0.26553 -0.04553,-0.094 -0.09107,-0.18255 -0.126481,-0.27659 0,-0.005 -0.03036,-0.0774 -0.01517,-0.0387 -0.01007,-0.0221 -0.02025,-0.0498 -0.0253,-0.0719 -0.01517,-0.0498 -0.03542,-0.0995 -0.05059,-0.14384 -0.0607,-0.19913 -0.101185,-0.39827 -0.131539,-0.60295 0.0051,0.0443 0,-0.0332 0,-0.0388 0,-0.0276 0,-0.0498 -0.0051,-0.0774 0,-0.0498 -0.0051,-0.10517 -0.01007,-0.15489 0,-0.10517 0,-0.20467 0,-0.30978 0,-0.11069 -0.09107,-0.21019 -0.192247,-0.21019 -0.106237,0 -0.182129,0.0885 -0.192246,0.21019 v 0 z"
     id="path49"
     style="stroke-width:0.529017" />
  <path
     class="cls-4"
     d="m 94.298554,137.55639 -0.05059,0.0553 c 0,0 -0.03036,0.0388 -0.04047,0.0664 -0.01007,0.0221 -0.01517,0.0498 -0.01517,0.0774 0,0.0276 0,0.0553 0.01517,0.0774 0.01007,0.0276 0.02023,0.0498 0.04047,0.0664 l 0.04048,0.0331 c 0.03036,0.0166 0.06071,0.0276 0.09612,0.0276 h 0.05059 c 0.03036,-0.0166 0.0607,-0.0333 0.086,-0.0609 l 0.05059,-0.0554 c 0,0 0.03036,-0.0387 0.04048,-0.0664 0.01007,-0.0221 0.01517,-0.0498 0.01517,-0.0774 0,-0.0276 0,-0.0553 -0.01517,-0.0774 -0.01007,-0.0276 -0.02025,-0.0498 -0.04048,-0.0664 l -0.04047,-0.0331 c -0.03036,-0.0166 -0.0607,-0.0276 -0.09612,-0.0276 h -0.05059 c -0.03036,0.0166 -0.0607,0.0332 -0.086,0.0609 z"
     id="path50"
     style="stroke-width:0.529017" />
</svg>
