<?xml version="1.0" encoding="UTF-8"?>
<svg xmlns="http://www.w3.org/2000/svg" viewBox="0 0 1118.91 988.89">
  <defs>
    <style>
      .cls-1 {
        fill: #194584;
      }

      .cls-2 {
        fill: #1c4da3;
      }

      .cls-3 {
        fill: #fff;
      }

      .cls-4 {
        fill: #3b82f6;
      }

      .cls-5 {
        fill: #2563eb;
      }

      .cls-6 {
        stroke: #2563eb;
        stroke-width: .25px;
      }

      .cls-6, .cls-7, .cls-8 {
        fill: none;
        stroke-miterlimit: 10;
      }

      .cls-7 {
        stroke-linecap: round;
        stroke-width: 3px;
      }

      .cls-7, .cls-8 {
        stroke: #fff;
      }

      .cls-8 {
        stroke-width: 10px;
      }

      .cls-9 {
        fill: #21589b;
      }

      .cls-10 {
        fill: #2c73f2;
      }
    </style>
  </defs>
  <g id="Capa_3" data-name="Capa 3">
    <line class="cls-6" x1="143.17" y1="371.14" x2="142.8" y2="370.99"/>
  </g>
  <g id="Capa_7" data-name="Capa 7">
    <g>
      <polygon class="cls-9" points="979.91 776.87 561.34 988.89 560.95 535.41 561.34 535.56 979.37 370.69 979.91 776.87"/>
      <polygon class="cls-5" points="560.95 535.41 143.17 371.14 143.17 295.41 560.88 455.42 560.95 535.41"/>
      <polygon class="cls-5" points="1118.91 214.26 1086.58 227.15 1011.99 255.72 979.22 268.27 560.88 428.52 109.88 255.75 109.87 255.75 35.24 227.16 0 213.66 561.34 0 1118.91 214.26"/>
      <polygon class="cls-10" points="561.01 455.38 561 455.38 560.88 455.42 143.17 295.41 0 240.57 0 213.66 35.24 227.16 109.87 255.75 109.88 255.75 560.88 428.52 561.01 455.38"/>
      <polygon class="cls-1" points="979.37 370.69 561.34 535.56 560.95 535.41 560.88 455.42 561 455.38 561.01 455.38 979.28 295.16 979.35 352.13 979.37 370.69"/>
      <polygon class="cls-2" points="1118.91 214.26 1118.91 241.17 1047.21 269.14 979.28 295.16 561.01 455.38 560.88 428.52 979.22 268.27 1011.99 255.72 1086.58 227.15 1118.91 214.26"/>
      <polygon class="cls-4" points="561.34 988.89 143.17 777.44 143.17 371.14 560.95 535.41 561.34 988.89"/>
      <ellipse class="cls-2" cx="559.46" cy="214.26" rx="51.19" ry="21.28"/>
      <path class="cls-3" d="M397.16,704.25c0,36.41-24.18,54.81-53.68,41.26-29.16-13.39-52.55-53.02-52.55-88.66s23.39-54.4,52.55-41.77c29.5,12.78,53.68,52.76,53.68,89.17Z"/>
      <line class="cls-8" x1="341.9" y1="681.76" x2="343.26" y2="541.89"/>
      <line class="cls-8" x1="341.9" y1="681.76" x2="420.08" y2="821.67"/>
      <line class="cls-8" x1="341.9" y1="681.76" x2="256.47" y2="738.63"/>
      <line class="cls-8" x1="234.21" y1="580.21" x2="341.9" y2="681.76"/>
      <line class="cls-8" x1="445.78" y1="643.57" x2="341.9" y2="681.76"/>
      <path class="cls-3" d="M257.88,591.67c0,15.06-10.69,22.58-23.8,16.84-13.03-5.71-23.54-22.38-23.54-37.27s10.51-22.49,23.54-16.95c13.11,5.57,23.8,22.32,23.8,37.38Z"/>
      <path class="cls-3" d="M317.53,526.42c0,15.32,11.12,32.47,24.91,38.35,13.88,5.91,25.19-1.83,25.19-17.32s-11.32-32.73-25.19-38.47-24.91,2.12-24.91,17.44Z"/>
      <path class="cls-3" d="M420.92,631.59c0,15.61,11.55,33.36,25.88,39.68,14.42,6.36,26.18-1.25,26.18-17.05s-11.76-33.63-26.18-39.81-25.88,1.57-25.88,17.18Z"/>
      <path class="cls-3" d="M232.47,727.27c0,14.99,10.65,32.26,23.86,38.59,13.29,6.38,24.13-.72,24.13-15.88s-10.84-32.51-24.13-38.72c-13.21-6.17-23.86,1.01-23.86,16.01Z"/>
      <path class="cls-3" d="M392.27,802.47c0,16.78,12.34,36.32,27.65,43.69,15.4,7.41,27.97-.3,27.97-17.28s-12.56-36.62-27.97-43.84c-15.31-7.17-27.65.65-27.65,17.43Z"/>
      <polyline class="cls-7" points="559.46 214.26 634.03 400.51 634.92 721.16"/>
      <circle class="cls-3" cx="634.92" cy="727.87" r="12.61"/>
      <path class="cls-3" d="M629.49,738.39c-.47,5.53-2.72,10.69-4.84,15.74s-3.85,9.64-4.55,14.85c-1.27,9.41.55,19.12,4.94,27.52,2.49,4.75,5.85,9.06,9.89,12.6l1.82-2.36c-3.07-1.86-4.77-5.26-4.54-8.83l-2.8.76c2.18,3.6,5.22,6.55,8.89,8.6,1.04.58,2.72-.41,2.2-1.69-1.28-3.21-2.56-6.41-3.83-9.62l-2.2,1.69c4.93,2.76,9.5,6.07,13.64,9.92l1.82-2.36c-3.79-2.28-6.55-5.89-7.77-10.15l-2.51,1.46c2.31,1.88,4.61,3.77,6.92,5.65,1.12.91,2.89.09,2.51-1.46-.67-2.67-1.34-5.35-2.01-8.02l-2.2,1.69c3.34,2.2,6.48,4.65,9.42,7.36,1.42,1.31,3.48-.74,2.12-2.12-5.09-5.16-7.49-12.71-6.18-19.87l-2.2.9c3.61,2.38,6.52,5.59,8.58,9.39.79,1.46,3.37.45,2.74-1.16-7.28-18.71-12.5-38.18-15.54-58.02-.29-1.9-3.18-1.09-2.89.8,3.04,19.84,8.26,39.31,15.54,58.02l2.74-1.16c-2.31-4.25-5.63-7.81-9.66-10.46-.76-.5-2.03-.03-2.2.9-1.5,8.23,1.07,16.81,6.96,22.78l2.12-2.12c-3.12-2.88-6.47-5.5-10.03-7.83-1.13-.75-2.51.48-2.2,1.69.67,2.67,1.34,5.35,2.01,8.02l2.51-1.46c-2.31-1.88-4.61-3.77-6.92-5.65-1.09-.89-2.95-.09-2.51,1.46,1.42,5,4.69,9.26,9.14,11.95,1.44.87,3.08-1.18,1.82-2.36-4.32-4.02-9.1-7.51-14.25-10.39-1.04-.58-2.71.41-2.2,1.69,1.28,3.21,2.56,6.41,3.83,9.62l2.2-1.69c-3.24-1.8-5.9-4.35-7.82-7.52-.8-1.32-2.7-.7-2.8.76-.3,4.6,2.1,9.04,6.02,11.42,1.43.86,3.12-1.22,1.82-2.36-6.96-6.09-11.62-14.42-13.49-23.46-.93-4.51-1.14-9.2-.57-13.77.62-4.97,2.38-9.63,4.29-14.22,2.32-5.55,4.69-11.08,5.2-17.14.16-1.92-2.84-1.91-3,0h0Z"/>
      <path class="cls-3" d="M637.65,738.19c1.09,4.44,2.7,8.75,4.82,12.81,2.23,4.27,4.96,8.29,7.52,12.36,1.02,1.63,3.62.13,2.59-1.51-2.48-3.95-5.12-7.84-7.31-11.96s-3.66-8.15-4.73-12.5c-.46-1.87-3.35-1.08-2.89.8h0Z"/>
      <path class="cls-3" d="M636.48,739.61c1.85,8.47,6.05,16.32,12.02,22.61,1.33,1.4,3.45-.72,2.12-2.12-5.63-5.93-9.51-13.3-11.25-21.28-.41-1.89-3.3-1.09-2.89.8h0Z"/>
      <path class="cls-3" d="M633.43,739.88c-.81,4.67,1.06,9.17,2.61,13.5s3.18,8.27,5.65,11.95c1.07,1.59,3.67.09,2.59-1.51-2.26-3.35-3.84-7.04-5.21-10.83s-3.47-8.2-2.75-12.31c.33-1.89-2.56-2.7-2.89-.8h0Z"/>
      <path class="cls-3" d="M633.05,753.5c2.42,6.27,5.82,12.05,10.11,17.22.52.62,1.59.54,2.12,0,.62-.62.52-1.5,0-2.12-3.94-4.75-7.11-10.15-9.33-15.9-.29-.76-1.01-1.28-1.85-1.05-.72.2-1.34,1.09-1.05,1.85h0Z"/>
      <path class="cls-3" d="M631.53,758.77c-.43,1.9.19,3.66,1.15,5.3.91,1.54,1.94,3.02,2.98,4.47,2.12,2.93,4.44,5.72,6.95,8.33,1.34,1.39,3.46-.73,2.12-2.12-2.19-2.28-4.26-4.69-6.13-7.24-.94-1.29-1.85-2.6-2.71-3.95-.72-1.13-1.8-2.57-1.48-4,.43-1.88-2.46-2.68-2.89-.8h0Z"/>
      <path class="cls-3" d="M632.66,769.17c2.79,5.34,6.69,10.1,11.4,13.86.63.51,1.5.62,2.12,0,.52-.52.64-1.61,0-2.12-4.53-3.62-8.25-8.11-10.93-13.25-.89-1.71-3.48-.2-2.59,1.51h0Z"/>
      <path class="cls-3" d="M632.54,773.61c3.16,5.25,6.82,10.19,10.91,14.76,1.29,1.44,3.4-.69,2.12-2.12-3.92-4.38-7.4-9.12-10.44-14.16-1-1.65-3.59-.15-2.59,1.51h0Z"/>
      <path class="cls-3" d="M632.69,776.21c.93,2.79,2.87,5.09,4.6,7.4,1.88,2.5,3.79,4.97,5.74,7.41.51.63,1.59.53,2.12,0,.63-.63.51-1.49,0-2.12-1.79-2.24-3.55-4.51-5.28-6.8-1.55-2.06-3.47-4.2-4.3-6.69-.61-1.82-3.51-1.04-2.89.8h0Z"/>
      <path class="cls-3" d="M635.38,782.43c1.6,4.69,4.39,8.93,8.12,12.19.61.53,1.52.6,2.12,0,.54-.54.61-1.59,0-2.12-3.35-2.92-5.92-6.67-7.35-10.86-.26-.77-1.03-1.27-1.85-1.05-.75.21-1.31,1.08-1.05,1.85h0Z"/>
      <path class="cls-3" d="M640.77,781.62c3.01,3.42,6.12,6.75,9.34,9.98.57.57,1.55.57,2.12,0s.57-1.55,0-2.12c-3.22-3.23-6.33-6.56-9.34-9.98-.53-.61-1.57-.55-2.12,0-.6.6-.54,1.51,0,2.12h0Z"/>
      <path class="cls-3" d="M642.42,779.53c3.79,4.3,7.32,8.81,10.58,13.52.46.66,1.31.97,2.05.54.66-.39,1-1.38.54-2.05-3.41-4.92-7.1-9.64-11.05-14.13-.54-.61-1.57-.55-2.12,0-.6.6-.54,1.51,0,2.12h0Z"/>
      <path class="cls-3" d="M643.77,786.94c2.43,2.29,4.76,4.67,7,7.15.53.58,1.59.58,2.12,0,.57-.62.56-1.5,0-2.12-2.24-2.48-4.57-4.86-7-7.15-.57-.54-1.56-.61-2.12,0s-.61,1.55,0,2.12h0Z"/>
      <path class="cls-3" d="M644.71,789.47c1.23.85,2.45,1.72,3.65,2.62.29.22.59.44.88.67.02.02.24.18.12.09s.1.08.12.09c.15.11.29.23.44.34.6.47,1.19.95,1.78,1.43s1.54.64,2.12,0c.5-.55.65-1.59,0-2.12-2.45-2.01-4.98-3.92-7.59-5.71-.65-.45-1.69-.14-2.05.54-.4.76-.15,1.58.54,2.05h0Z"/>
      <path class="cls-3" d="M643.25,790.14c1.81,2.08,3.62,4.17,5.43,6.25.52.59,1.6.57,2.12,0,.58-.63.55-1.49,0-2.12-1.81-2.08-3.62-4.17-5.43-6.25-.52-.59-1.6-.57-2.12,0-.58.63-.55,1.49,0,2.12h0Z"/>
      <path class="cls-3" d="M643.78,793.88c1.63,2.09,3.45,4.02,5.45,5.76.59.52,1.55.62,2.12,0,.52-.57.63-1.57,0-2.12-1.99-1.75-3.82-3.68-5.45-5.76-.22-.28-.72-.44-1.06-.44-.37,0-.81.16-1.06.44s-.46.66-.44,1.06c.02.42.18.73.44,1.06h0Z"/>
      <path class="cls-3" d="M631.73,743.8c1.63,6.25,3.26,12.51,4.89,18.76.67,2.59,1.35,5.17,2.02,7.76.92,3.52,1.12,4.19.07,7.54-1.11,3.53,1.95,7.87,5.79,7.6,2.06-.15,3.56-.43,5.3-1.6,4.55-3.03,3.34-11.68-3.03-11.18-3.95.31-6.1,2.01-7.79,5.51-.71,1.47-1.24,3.07-1.6,4.65-.4,1.8.02,4.09-.42,5.75l5.79-4.4c2.85-.33,1.6-.31,1.17-2.93-.16-1.01-.18-2.05-.24-3.07-.17-3.28-.26-6.55-.54-9.82-.58-6.75-1.47-13.47-2.27-20.19-.67-5.67-7.81-8.47-11.18-3.03-6.9,11.16-5.15,23.96-5.85,36.44h12c-.01-4.84,1.04-10.42-2.18-14.4-1.23-1.53-4.02-2.19-5.84-1.54-6.07,2.17-5.75,7.96-5.22,13.46.56,5.81,1.51,11.5,4.98,16.35,4.46,6.22,14.87.24,10.36-6.06-2.53-3.53-5.15-11.78-3.42-16.12l-4.19,4.19.68-.24-5.84-1.54.33.41-1.76-4.24c.39,3.17.08,6.56.09,9.75.02,7.77,11.57,7.67,12,0,.57-10.16-1.41-21.3,4.21-30.38-3.73-1.01-7.45-2.02-11.18-3.03,1.18,10.01,2.26,19.95,2.8,30.01.32,5.96,2.32,19.01,11.06,18,2.65-.31,5.05-1.65,5.79-4.4s-.51-6.57,1.44-8.79l-4.24,1.76,1.04-.08c-1.01-3.73-2.02-7.45-3.03-11.18l.76-.04,5.79,7.6c.93-2.97,1.89-5.04,1.36-8.24-.56-3.36-1.69-6.69-2.55-9.99-1.93-7.4-3.86-14.8-5.79-22.21-1.95-7.47-13.53-4.3-11.57,3.19h0Z"/>
      <path class="cls-3" d="M635.84,800.17c-3.69-3.47-6.59-7.74-8.3-12.52s-2.38-10.06-4.99-14.58c-.72-1.25-2.67-.12-1.94,1.14,2.71,4.69,3.2,10.21,5.2,15.18,1.89,4.69,4.76,8.9,8.44,12.36,1.05.99,2.65-.6,1.59-1.59h0Z"/>
      <path class="cls-3" d="M644.15,750.14c1.45,0,1.45-2.25,0-2.25s-1.45,2.25,0,2.25h0Z"/>
      <path class="cls-3" d="M644.45,750.92c1.59,3.17,3.39,6.23,5.4,9.15.34.5.99.73,1.54.4.49-.29.75-1.04.4-1.54-2.01-2.92-3.82-5.98-5.4-9.15-.27-.54-1.04-.7-1.54-.4-.55.32-.68.99-.4,1.54h0Z"/>
      <path class="cls-3" d="M642.62,748.39c3.35,7.28,4.61,15.64,10.21,21.71.98,1.07,2.57-.53,1.59-1.59-5.41-5.86-6.62-14.22-9.86-21.25-.6-1.31-2.54-.17-1.94,1.14h0Z"/>
    </g>
  </g>
</svg>