<svg viewBox="347.328 429.408 334.8 280.8" xmlns="http://www.w3.org/2000/svg" data-name="Mesa 2" id="Mesa_2" style="max-height: 500px" width="334.8" height="280.8">
  <defs>
    <style>
      .cls-1 {
        fill: #194584;
      }

      .cls-2 {
        fill: #1c4da3;
      }

      .cls-3 {
        fill: #fff;
      }

      .cls-4 {
        fill: #f3f4f6;
      }

      .cls-5 {
        fill: none;
        stroke: #fff;
        stroke-miterlimit: 10;
      }

      .cls-6 {
        fill: #3b82f6;
      }

      .cls-7 {
        fill: #2563eb;
      }

      .cls-8 {
        fill: #21589b;
      }

      .cls-9 {
        fill: #2c73f2;
      }
    </style>
  </defs>
  <g data-name="Capa 9" id="Capa_9">
    <polygon points="390.16 645.99 508.6 700.58 508.7 556.13 390.16 508.02 390.16 645.99" class="cls-6"/>
    <path d="M508.9,554.01v32.4s-118.74-54.37-118.74-54.37v-28.39l116.86,50.95c.08.03.16.03.24.01l1.64-.6Z" class="cls-7"/>
    <polygon points="508.7 700.58 628.03 653.01 628.03 513.98 508.8 557.55 508.7 700.58" class="cls-8"/>
    <polygon points="628.13 513.98 627.24 541.36 508.9 586.41 508.9 555.61 628.13 513.98" class="cls-1"/>
    <path d="M668.38,495.61l.02,9.17s-.02.05-.04.06l-161.14,59s-.08-.01-.08-.06v-9.11s.02-.05.04-.06l149.66-54.64,11.46-4.42s.08.01.08.06Z" class="cls-2"/>
    <polygon points="486.08 614.06 406.56 575.56 406.56 554.64 486.08 591.45 486.08 614.06" class="cls-3"/>
    <polygon points="486.08 646.18 406.56 607.67 406.56 586.75 486.08 623.56 486.08 646.18" class="cls-3"/>
    <polygon points="486.08 678.85 406.56 640.35 406.56 619.43 486.08 656.24 486.08 678.85" class="cls-3"/>
  </g>
  <g>
    <path d="M466.39,729.51v51.96h-15.38v-46l3.19.35-18.78,45.66h-16.07l-18.84-45.52,3.19-.42v45.93h-15.31v-51.96h24.87l17.11,43.44h-5.89l16.97-43.44h24.94Z"/>
    <path d="M513.7,749.88h-13.13l-.76,5.83-.73,5.54,1.55,4.47-1.55,4.53.71,5.37.78,5.89h13.13v-31.62ZM500.51,756.81c-.23-.38-.46-.75-.71-1.1-1.39-1.99-3.07-3.57-5.06-4.73-2.34-1.36-5.02-2.04-8.03-2.04s-5.76.69-8.11,2.07c-2.35,1.38-4.18,3.33-5.49,5.85-1.3,2.52-1.96,5.47-1.96,8.86s.65,6.23,1.96,8.75c1.31,2.52,3.14,4.48,5.49,5.88,2.35,1.4,5.06,2.1,8.11,2.1s5.69-.69,8.03-2.07c1.99-1.17,3.67-2.76,5.04-4.76.24-.35.48-.71.7-1.09,1.49-2.52,2.46-5.45,2.9-8.8-.41-3.42-1.36-6.39-2.87-8.91ZM497.91,769.42c-.96,1.07-2.06,1.91-3.31,2.54-1.25.63-2.56.94-3.92.94s-2.5-.31-3.53-.94c-1.03-.63-1.83-1.47-2.4-2.54-.57-1.07-.86-2.3-.86-3.7s.29-2.64.86-3.73c.57-1.08,1.37-1.94,2.4-2.57,1.03-.62,2.21-.94,3.53-.94s2.67.31,3.92.94c1.25.63,2.35,1.48,3.31,2.57.95,1.09,1.65,2.33,2.1,3.73-.44,1.4-1.14,2.63-2.1,3.7Z"/>
    <path d="M570.81,722.64c1.4.44,2.63,1.14,3.7,2.1,1.07.96,1.91,2.06,2.54,3.31.63,1.25.94,2.56.94,3.92s-.31,2.5-.94,3.53c-.63,1.03-1.47,1.83-2.54,2.4-1.07.57-2.3.86-3.7.86s-2.64-.29-3.73-.86c-1.08-.57-1.94-1.37-2.57-2.4-.62-1.03-.94-2.21-.94-3.53s.31-2.67.94-3.92c.63-1.25,1.48-2.35,2.57-3.31,1.09-.95,2.33-1.65,3.73-2.1Z"/>
    <path d="M518.66,749.88h12.64v8.44l-.5,1.43v9.66l.5,2.81v18.38h-12.64v-40.73ZM527.44,765.72c.44-3.42,1.41-6.39,2.9-8.91,1.49-2.52,3.41-4.46,5.77-5.82,2.35-1.36,5.02-2.04,8-2.04s5.8.69,8.14,2.07c2.34,1.38,4.16,3.33,5.46,5.85,1.31,2.52,1.96,5.47,1.96,8.86s-.65,6.23-1.96,8.75c-1.31,2.52-3.13,4.48-5.46,5.88-2.34,1.4-5.05,2.1-8.14,2.1s-5.69-.69-8.03-2.07c-2.34-1.38-4.24-3.33-5.71-5.85-1.47-2.52-2.45-5.45-2.92-8.8ZM546.92,765.72c0-1.4-.29-2.64-.86-3.73-.57-1.08-1.37-1.94-2.4-2.57-1.03-.63-2.21-.94-3.53-.94s-2.67.31-3.92.94c-1.25.63-2.35,1.48-3.28,2.57-.94,1.09-1.63,2.33-2.07,3.73.44,1.4,1.13,2.63,2.07,3.7.94,1.07,2.03,1.91,3.28,2.54,1.25.63,2.56.94,3.92.94s2.5-.31,3.53-.94c1.03-.63,1.83-1.47,2.4-2.54.57-1.07.86-2.3.86-3.7Z"/>
    <path d="M564.36,741.61h12.86v39.89h-12.86v-39.89Z"/>
    <path d="M580.75,759.15v-5.46l6.29-2.87,5.52-9.49h7.17v8.55h12.8v9.27h-12.8v7.89c0,2.13.41,3.64,1.24,4.53.83.88,2.46,1.32,4.88,1.32,1.51,0,2.85-.12,4.03-.36,1.18-.24,2.24-.54,3.2-.91v9.33c-1.18.37-2.67.71-4.47,1.02-1.8.31-3.7.47-5.68.47-3.61,0-6.58-.55-8.91-1.66-2.34-1.1-4.08-2.69-5.24-4.75-1.16-2.06-1.74-4.49-1.74-7.28v-9.6h-6.29Z"/>
  </g>
  <path d="M507.14,555.36v8.38c0,.06-.06.1-.12.08l-147.6-64.36c-.4-.18-.66-.57-.66-1.02v-6.81c0-.8.82-1.33,1.55-1.02l10.49,4.57,135.68,59.15c.4.18.66.57.66,1.02Z" class="cls-9"/>
  <path d="M668.17,495.88l-11.33,4.13-38.3,13.98-109.64,40.03-1.42.52-.22.08c-.08.02-.16.02-.24-.01l-116.86-50.95-19.37-8.44-11.5-4c-.27-.11-.25-.5.03-.59l30.84-11.05,116.05-38.4,2.69-.89,11.31-3.74c.07-.03.15-.02.22,0l98.11,39,49.64,19.73c.27.11.26.5-.01.6Z" class="cls-7"/>
  <path d="M521.14,490.29c4.19-2.16,4.72-5.62,1.23-7.73s-9.62-2.1-13.8,0c-4.21,2.11-4.87,5.58-1.42,7.73,3.48,2.17,9.77,2.17,13.99,0Z" class="cls-1"/>
  <line y2="545.03" x2="533.44" y1="490.52" x1="518.07" class="cls-5"/>
  <line y2="643.31" x2="533.11" y1="543.61" x1="533.11" class="cls-5"/>
  <path d="M532.34,642.21c.24,1.97-1.16,3.71-1.88,5.45-.68,1.64-1.15,3.35-1.4,5.1-.51,3.53-.17,7.14,1.03,10.5.32.9,1.77.51,1.45-.4-1.23-3.44-1.55-7.16-.85-10.75.35-1.79.93-3.53,1.74-5.16.75-1.51,1.63-3,1.42-4.75-.11-.95-1.61-.96-1.5,0h0Z" class="cls-3"/>
  <path d="M532.49,643.37c-.26,6.49.03,13.26,3.29,19.05.47.84,1.77.09,1.3-.76-3.13-5.55-3.34-12.08-3.09-18.3.04-.97-1.46-.96-1.5,0h0Z" class="cls-3"/>
  <path d="M532.66,643.25c.2,1.48,1.1,2.47,2.17,3.45,1.15,1.06,2.1,2.18,2.82,3.57,1.44,2.79,1.94,5.98,2.42,9.05.15.95,1.59.55,1.45-.4-.46-2.98-.99-5.99-2.25-8.76-.59-1.29-1.38-2.51-2.35-3.55-.92-.98-2.56-1.93-2.75-3.37-.13-.94-1.63-.96-1.5,0h0Z" class="cls-3"/>
  <path d="M533.03,643.77c.31,3.4.68,6.93,2.6,9.85.99,1.5,2.09,2.83,2.67,4.56.59,1.75.81,3.59,1.02,5.42.11.95,1.61.96,1.5,0-.41-3.53-1.01-6.72-3.13-9.65-1.06-1.47-1.88-2.95-2.35-4.72s-.65-3.63-.82-5.47c-.09-.95-1.59-.96-1.5,0h0Z" class="cls-3"/>
  <path d="M532.58,644.16c-.59,4.5-1.4,9.25-.81,13.79.5,3.93,2.75,7.15,5.54,9.85.69.67,1.76-.39,1.06-1.06-2.82-2.73-4.95-5.92-5.21-9.94s.38-8.48.93-12.64c.12-.95-1.38-.95-1.5,0h0Z" class="cls-3"/>
  <path d="M532.19,648.94c-1.52,4.3-2.66,8.53-1.19,13.02,1.42,4.33,4.41,7.83,7.13,11.39.58.76,1.88.01,1.3-.76-2.54-3.34-5.42-6.63-6.84-10.64-1.55-4.36-.44-8.41,1.05-12.61.32-.91-1.13-1.3-1.45-.4h0Z" class="cls-3"/>
  <path d="M533.66,646.85c1.47,3.86,2.79,7.76,3.95,11.72,1.2,4.1,2.32,8.38,1.55,12.67-.17.94,1.27,1.35,1.45.4.77-4.26-.12-8.46-1.29-12.57s-2.63-8.47-4.21-12.62c-.34-.89-1.79-.51-1.45.4h0Z" class="cls-3"/>
  <path d="M534.94,653.89c1.15,6.39,2.41,13.01,6.2,18.43.55.79,1.85.04,1.3-.76-3.72-5.32-4.93-11.8-6.05-18.08-.17-.95-1.62-.55-1.45.4h0Z" class="cls-3"/>
  <path d="M533.13,656.44c.77,7.47,3.85,14.53,8.84,20.15.64.72,1.7-.34,1.06-1.06-4.71-5.3-7.68-12.03-8.4-19.09-.1-.95-1.6-.96-1.5,0h0Z" class="cls-3"/>
  <path d="M532.56,645.75c3.14,3.77,6.1,7.8,7.99,12.36.95,2.29,1.64,4.71,1.93,7.17.3,2.6.04,5.21-.24,7.8-.1.96,1.4.95,1.5,0,.3-2.75.54-5.48.19-8.23-.32-2.52-1.02-4.97-2-7.31-1.98-4.75-5.03-8.91-8.3-12.84-.62-.74-1.67.32-1.06,1.06h0Z" class="cls-3"/>
  <path d="M536.63,651.5c.98,6.64,5.55,12.17,6.24,18.88.1.95,1.6.96,1.5,0-.7-6.86-5.29-12.5-6.29-19.28-.14-.95-1.59-.55-1.45.4h0Z" class="cls-3"/>
  <path d="M530.79,660.78c-.41,1.95-.39,4.05-.24,6.03.13,1.71.68,3.5,2.27,4.38.84.47,1.6-.83.76-1.3-1.28-.71-1.51-2.28-1.56-3.61-.07-1.69-.13-3.44.22-5.11.2-.94-1.25-1.34-1.45-.4h0Z" class="cls-3"/>
  <path d="M531.11,661.17c-.61,1.93-.19,3.96.56,5.79s1.83,3.74,2.98,5.46c.53.8,1.83.05,1.3-.76-1.04-1.56-2.01-3.21-2.75-4.93-.7-1.62-1.18-3.42-.63-5.16.29-.92-1.16-1.32-1.45-.4h0Z" class="cls-3"/>
  <path d="M530.22,662.13c1.06,3.5,1.65,7.1,1.74,10.76.02.96,1.52.97,1.5,0-.1-3.78-.7-7.54-1.79-11.16-.28-.92-1.73-.53-1.45.4h0Z" class="cls-3"/>
  <path d="M529.12,661.28c.5,4.33,2.28,8.39,5.17,11.67.64.73,1.7-.34,1.06-1.06-2.6-2.95-4.28-6.7-4.73-10.61-.05-.41-.31-.75-.75-.75-.37,0-.8.35-.75.75h0Z" class="cls-3"/>
  <path d="M531.68,663.18c1.49,3.88,3.26,7.63,5.32,11.24.48.84,1.77.08,1.3-.76-1.99-3.49-3.72-7.13-5.17-10.88-.34-.89-1.79-.5-1.45.4h0Z" class="cls-3"/>
  <path d="M532.45,660.9c.81,4.39,1.92,8.72,3.31,12.96.3.91,1.75.52,1.45-.4-1.39-4.24-2.5-8.57-3.31-12.96-.18-.95-1.62-.55-1.45.4h0Z" class="cls-3"/>
  <path d="M531.36,656.72c1.52,5.53,3.53,10.91,5.99,16.08.41.87,1.71.11,1.3-.76-2.4-5.06-4.35-10.32-5.83-15.72-.26-.93-1.7-.53-1.45.4h0Z" class="cls-3"/>
  <path d="M537.04,659.14c1.73,4.8,2.77,9.81,3.06,14.9.05.96,1.55.97,1.5,0-.29-5.23-1.33-10.38-3.11-15.3-.33-.9-1.78-.51-1.45.4h0Z" class="cls-3"/>
  <path d="M540.18,663.7c-.64,3.54-.97,7.13-.95,10.74,0,.96,1.5.97,1.5,0-.01-3.47.28-6.92.9-10.34.17-.94-1.27-1.35-1.45-.4h0Z" class="cls-3"/>
  <path d="M541.35,662.62c.52,3,.18,6.08-.9,8.92-.14.38.16.82.52.92.42.12.78-.14.92-.52,1.18-3.1,1.47-6.46.9-9.72-.07-.4-.56-.62-.92-.52-.42.12-.59.52-.52.92h0Z" class="cls-3"/>
  <path d="M541.89,664.27c.53,2.67.16,5.49-1.05,7.93-.43.86.87,1.62,1.3.76,1.39-2.82,1.81-6,1.2-9.09-.19-.95-1.63-.55-1.45.4h0Z" class="cls-3"/>
  <path d="M539.55,664.27c.18,2.42.08,4.86-.31,7.25-.07.4.1.81.52.92.36.1.86-.12.92-.52.42-2.53.55-5.09.36-7.65-.03-.4-.32-.75-.75-.75-.38,0-.78.34-.75.75h0Z" class="cls-3"/>
  <path d="M538.54,662.34c0,2.58,0,5.16,0,7.74,0,.97,1.5.97,1.5,0,0-2.58,0-5.16,0-7.74,0-.97-1.5-.97-1.5,0h0Z" class="cls-3"/>
  <path d="M538.14,661.37c.17,3.55-.31,7.07-1.42,10.44-.3.92,1.15,1.31,1.45.4,1.15-3.49,1.65-7.17,1.48-10.84-.05-.96-1.55-.97-1.5,0h0Z" class="cls-3"/>
  <path d="M535.3,663.3c.28,3.32.35,6.65.21,9.97-.04.97,1.46.96,1.5,0,.14-3.33.07-6.65-.21-9.97-.08-.95-1.58-.96-1.5,0h0Z" class="cls-3"/>
  <path d="M533.57,657.2c-.56,4.16-.27,8.38.92,12.41.27.92,1.72.53,1.45-.4-1.11-3.76-1.44-7.72-.92-11.61.05-.4-.1-.8-.52-.92-.35-.1-.87.12-.92.52h0Z" class="cls-3"/>
  <path d="M533.2,656.05c-.34,4.8.17,9.63,1.48,14.26.26.93,1.71.53,1.45-.4-1.28-4.51-1.75-9.18-1.42-13.86.07-.96-1.43-.96-1.5,0h0Z" class="cls-3"/>
  <path d="M532.63,656.44c.53,4.83,1.48,9.6,2.86,14.25.27.92,1.72.53,1.45-.4-1.34-4.53-2.29-9.16-2.81-13.86-.1-.95-1.61-.96-1.5,0h0Z" class="cls-3"/>
  <path d="M534.34,647.71c2.31,3.18,3.76,6.94,4.15,10.85.05.48.8.48.75,0-.4-4.04-1.86-7.94-4.25-11.23-.28-.39-.93-.01-.65.38h0Z" class="cls-4"/>
  <path d="M533.79,651.72c-.33.71-.6,1.46-.77,2.22s-.33,1.61-.2,2.38.7,1.39,1.16,1.99c.52.68,1.04,1.36,1.55,2.04.12.16.32.25.51.13.16-.09.26-.35.13-.51-.48-.63-.95-1.25-1.43-1.88-.24-.31-.48-.62-.71-.94-.2-.27-.39-.56-.46-.89s-.05-.7,0-1.04.1-.7.18-1.05c.16-.72.39-1.42.7-2.08.09-.18.05-.4-.13-.51-.16-.09-.43-.05-.51.13h0Z" class="cls-4"/>
  <path d="M531.25,657.3c-.39,2.18.48,4.31,1.78,6.02.37.48.77.94,1.19,1.39.33.35.86-.18.53-.53-1.67-1.77-3.23-4.12-2.78-6.68.04-.2-.05-.4-.26-.46-.18-.05-.43.06-.46.26h0Z" class="cls-4"/>
  <path d="M539.04,662.44c.54,1.17,1.08,2.35,1.6,3.53.48,1.08,1.05,2.21,1.01,3.43-.02.48.73.48.75,0,.04-1.31-.54-2.51-1.05-3.68-.54-1.23-1.09-2.45-1.65-3.66-.09-.18-.35-.23-.51-.13-.19.11-.22.33-.13.51h0Z" class="cls-4"/>
  <path d="M535.22,668.35c.29,1.05.8,2.02,1.48,2.87.19.23.39.45.6.66.14.14.39.15.53,0s.15-.38,0-.53c-.18-.18-.36-.37-.52-.56-.04-.05-.08-.09-.11-.14-.02-.02-.04-.04-.05-.07,0,0,.04.05.02.02-.01-.02-.03-.04-.04-.06-.07-.1-.15-.2-.22-.31-.14-.21-.27-.43-.39-.66-.06-.11-.11-.22-.17-.34-.03-.05-.05-.11-.07-.16,0,0-.04-.07-.03-.08,0,0,.04.09,0,.01,0-.02-.01-.03-.02-.05-.11-.27-.2-.54-.28-.82-.05-.19-.27-.32-.46-.26s-.32.26-.26.46h0Z" class="cls-4"/>
  <path d="M536.62,663.5c-.06,1.26.26,2.54.91,3.63.19.31.4.61.64.89.13.15.4.14.53,0,.15-.16.14-.37,0-.53-.03-.04-.06-.07-.09-.11,0,0-.09-.12-.05-.06-.06-.07-.11-.15-.17-.23-.11-.15-.21-.31-.3-.48s-.18-.33-.25-.5c0-.01-.06-.14-.03-.07-.02-.04-.04-.09-.05-.13-.03-.09-.07-.18-.1-.26-.12-.36-.2-.72-.26-1.09.01.08,0-.06,0-.07,0-.05,0-.09-.01-.14,0-.09-.01-.19-.02-.28,0-.19,0-.37,0-.56,0-.2-.18-.38-.38-.38-.21,0-.36.16-.38.38h0Z" class="cls-4"/>
  <path d="M540.77,671.85l-.1.1s-.06.07-.08.12c-.02.04-.03.09-.03.14,0,.05,0,.1.03.14.02.05.04.09.08.12l.08.06c.06.03.12.05.19.05h.1c.06-.03.12-.06.17-.11l.1-.1s.06-.07.08-.12c.02-.04.03-.09.03-.14,0-.05,0-.1-.03-.14-.02-.05-.04-.09-.08-.12l-.08-.06c-.06-.03-.12-.05-.19-.05h-.1c-.06.03-.12.06-.17.11h0Z" class="cls-4"/>
</svg>