<?xml version="1.0" encoding="UTF-8" standalone="no"?>
<svg
   id="Mesa_2"
   data-name="Mesa 2"
   viewBox="0 0 96 96"
   version="1.1"
   width="96"
   height="96"
   xmlns="http://www.w3.org/2000/svg"
   xmlns:svg="http://www.w3.org/2000/svg">
  <defs
     id="defs1">
    <style
       id="style1">
      .cls-1 {
        fill: #194584;
      }

      .cls-2 {
        fill: #1c4da3;
      }

      .cls-3 {
        fill: #fff;
      }

      .cls-4 {
        fill: #f3f4f6;
      }

      .cls-5 {
        fill: none;
        stroke: #fff;
        stroke-miterlimit: 10;
      }

      .cls-6 {
        fill: #3b82f6;
      }

      .cls-7 {
        fill: #2563eb;
      }

      .cls-8 {
        fill: #21589b;
      }

      .cls-9 {
        fill: #2c73f2;
      }
    </style>
  </defs>
  <g
     id="Capa_9"
     data-name="Capa 9"
     transform="matrix(0.30178762,0,0,0.33099271,-107.02434,-138.72585)">
    <polygon
       class="cls-6"
       points="390.16,645.99 508.6,700.58 508.7,556.13 390.16,508.02 "
       id="polygon1" />
    <path
       class="cls-7"
       d="m 508.9,554.01 v 32.4 c 0,0 -118.74,-54.37 -118.74,-54.37 v -28.39 l 116.86,50.95 c 0.08,0.03 0.16,0.03 0.24,0.01 z"
       id="path1" />
    <polygon
       class="cls-8"
       points="508.7,700.58 628.03,653.01 628.03,513.98 508.8,557.55 "
       id="polygon2" />
    <polygon
       class="cls-1"
       points="628.13,513.98 627.24,541.36 508.9,586.41 508.9,555.61 "
       id="polygon3" />
    <path
       class="cls-2"
       d="m 668.38,495.61 0.02,9.17 c 0,0 -0.02,0.05 -0.04,0.06 l -161.14,59 c 0,0 -0.08,-0.01 -0.08,-0.06 v -9.11 c 0,0 0.02,-0.05 0.04,-0.06 l 149.66,-54.64 11.46,-4.42 c 0,0 0.08,0.01 0.08,0.06 z"
       id="path3" />
    <polygon
       class="cls-3"
       points="486.08,614.06 406.56,575.56 406.56,554.64 486.08,591.45 "
       id="polygon4" />
    <polygon
       class="cls-3"
       points="486.08,646.18 406.56,607.67 406.56,586.75 486.08,623.56 "
       id="polygon5" />
    <polygon
       class="cls-3"
       points="486.08,678.85 406.56,640.35 406.56,619.43 486.08,656.24 "
       id="polygon6" />
  </g>
  <path
     class="cls-9"
     d="m 46.024239,45.094272 v 2.773718 c 0,0.01987 -0.01811,0.03309 -0.03621,0.02648 L 1.4441739,26.591778 C 1.3234588,26.532201 1.2449938,26.403112 1.2449938,26.254166 v -2.25406 c 0,-0.264796 0.2474657,-0.440222 0.4677711,-0.337613 l 3.165752,1.512635 40.9465441,19.57822 c 0.120714,0.05959 0.199178,0.188667 0.199178,0.337613 z"
     id="path12"
     style="stroke-width:0.316053" />
  <path
     class="cls-7"
     d="m 94.621093,25.406825 -3.419246,1.366999 -11.558469,4.627278 -33.087992,13.249639 -0.428538,0.172115 -0.06639,0.02648 c -0.02415,0.0065 -0.04829,0.0065 -0.07244,-0.0034 L 10.721126,27.981951 4.8754993,25.188374 1.4049417,23.864402 c -0.081481,-0.03642 -0.075449,-0.165496 0.00905,-0.195285 L 10.721122,20.011648 45.743575,7.3015271 46.555384,7.0069443 49.968601,5.7690315 c 0.02113,-0.00992 0.04528,-0.00661 0.06639,0 L 79.643376,18.677747 94.62411,25.208233 c 0.08149,0.0364 0.07848,0.165495 -0.0031,0.198596 z"
     id="path13"
     style="stroke-width:0.316053" />
  <path
     class="cls-1"
     d="m 50.249267,23.556575 c 1.264489,-0.714944 1.424436,-1.860179 0.371198,-2.558573 -1.053238,-0.698395 -2.903197,-0.695085 -4.164669,0 -1.270526,0.698394 -1.469705,1.846939 -0.428538,2.558573 1.05022,0.718255 2.948465,0.718255 4.222009,0 z"
     id="path14"
     style="stroke-width:0.316053" />
  <line
     class="cls-5"
     x1="49.322784"
     y1="23.6327"
     x2="53.961258"
     y2="41.675121"
     id="line14"
     style="stroke-width:0.316053" />
  <line
     class="cls-5"
     x1="53.861664"
     y1="41.205101"
     x2="53.861664"
     y2="74.205086"
     id="line15"
     style="stroke-width:0.316053" />
  <path
     class="cls-3"
     d="m 53.629288,73.840995 c 0.07243,0.65205 -0.350074,1.227979 -0.56736,1.803907 -0.205216,0.542822 -0.347057,1.108824 -0.422503,1.688061 -0.153911,1.168402 -0.05131,2.363294 0.310841,3.475427 0.09658,0.297894 0.534165,0.1688 0.437592,-0.132403 -0.371198,-1.138611 -0.46777,-2.369905 -0.256519,-3.558171 0.105625,-0.592474 0.280662,-1.168401 0.525109,-1.707922 0.226342,-0.499793 0.491915,-0.992978 0.428541,-1.572215 -0.0332,-0.314443 -0.48588,-0.317753 -0.452683,0 v 0 z"
     id="path15"
     style="stroke-width:0.316053" />
  <path
     class="cls-3"
     d="m 53.674557,74.224936 c -0.07847,2.148151 0.0091,4.388967 0.992881,6.305412 0.14184,0.278042 0.534165,0.02979 0.392324,-0.25155 -0.944596,-1.837008 -1.00797,-3.998395 -0.932525,-6.057164 0.01206,-0.321067 -0.440609,-0.317759 -0.45268,0 v 0 z"
     id="path16"
     style="stroke-width:0.316053" />
  <path
     class="cls-3"
     d="m 53.725861,74.185218 c 0.06036,0.489869 0.331966,0.817554 0.654879,1.141925 0.347054,0.350854 0.633755,0.721567 0.851041,1.181642 0.434574,0.923476 0.585468,1.979346 0.730325,2.995484 0.04528,0.314459 0.479844,0.182049 0.437592,-0.132389 -0.138822,-0.986366 -0.298769,-1.982647 -0.679022,-2.899504 -0.178054,-0.426974 -0.416467,-0.830788 -0.709201,-1.175018 -0.277644,-0.324377 -0.772575,-0.638815 -0.829915,-1.115442 -0.03923,-0.311137 -0.491914,-0.317761 -0.452682,0 v 0 z"
     id="path17"
     style="stroke-width:0.316053" />
  <path
     class="cls-3"
     d="m 53.837522,74.35734 c 0.09355,1.125368 0.205216,2.293777 0.784648,3.260277 0.29877,0.496485 0.630736,0.936708 0.805773,1.509324 0.178055,0.579243 0.244449,1.188266 0.307824,1.793981 0.0332,0.31445 0.485877,0.317753 0.452681,0 -0.123733,-1.168403 -0.304806,-2.224272 -0.944596,-3.194077 -0.319895,-0.486559 -0.56736,-0.976427 -0.709199,-1.562289 -0.141841,-0.585854 -0.196165,-1.201501 -0.247468,-1.810532 -0.02716,-0.314439 -0.479842,-0.317747 -0.452681,0 v 0 z"
     id="path18"
     style="stroke-width:0.316053" />
  <path
     class="cls-3"
     d="m 53.701718,74.486421 c -0.178055,1.48947 -0.422504,3.061686 -0.244449,4.564391 0.150894,1.30081 0.829916,2.3666 1.671904,3.260283 0.208235,0.22176 0.531145,-0.129095 0.319893,-0.350855 -0.85104,-0.903608 -1.493847,-1.959472 -1.572311,-3.290067 -0.07847,-1.330591 0.114679,-2.80682 0.280662,-4.183752 0.03621,-0.314437 -0.416468,-0.314437 -0.452682,0 v 0 z"
     id="path19"
     style="stroke-width:0.316053" />
  <path
     class="cls-3"
     d="m 53.58402,76.068569 c -0.458716,1.423268 -0.802756,2.823369 -0.359127,4.309524 0.428538,1.433201 1.330884,2.591681 2.151745,3.77001 0.175038,0.251553 0.56736,0.0031 0.392324,-0.251551 -0.766541,-1.105521 -1.635688,-2.194486 -2.064227,-3.521767 -0.467771,-1.443124 -0.132785,-2.783651 0.316878,-4.17382 0.09658,-0.301202 -0.341022,-0.430291 -0.437593,-0.132396 z"
     id="path20"
     style="stroke-width:0.316053" />
  <path
     class="cls-3"
     d="m 54.027647,75.376795 c 0.443629,1.27763 0.841988,2.568502 1.192063,3.879232 0.362144,1.357074 0.700145,2.773724 0.46777,4.193685 -0.05131,0.311134 0.38327,0.44684 0.437592,0.13239 0.232377,-1.410028 -0.03621,-2.800195 -0.389305,-4.160572 -0.353092,-1.360381 -0.793703,-2.803515 -1.270527,-4.177125 -0.102608,-0.294593 -0.540199,-0.168814 -0.437593,0.13239 z"
     id="path21"
     style="stroke-width:0.316053" />
  <path
     class="cls-3"
     d="m 54.413936,77.70698 c 0.347055,2.115044 0.727308,4.306215 1.871084,6.100201 0.165983,0.261479 0.558307,0.01323 0.392324,-0.251556 -1.122651,-1.760882 -1.487814,-3.905711 -1.825816,-5.984343 -0.05131,-0.314451 -0.488896,-0.182049 -0.437592,0.132396 v 0 z"
     id="path22"
     style="stroke-width:0.316053" />
  <path
     class="cls-3"
     d="m 53.8677,78.551016 c 0.232378,2.472509 1.161883,4.80932 2.667804,6.669502 0.193144,0.238317 0.513038,-0.112536 0.319894,-0.350849 -1.421419,-1.754261 -2.317728,-3.981843 -2.535016,-6.318653 -0.03017,-0.314444 -0.48286,-0.317752 -0.452682,0 z"
     id="path23"
     style="stroke-width:0.316053" />
  <path
     class="cls-3"
     d="m 53.695682,75.012704 c 0.947613,1.247839 1.840903,2.581744 2.411282,4.091067 0.286699,0.757976 0.494931,1.55898 0.58245,2.373225 0.09053,0.860575 0.01206,1.724465 -0.07244,2.581733 -0.03017,0.317758 0.422503,0.31445 0.452681,0 0.09053,-0.910228 0.162965,-1.813835 0.05733,-2.724061 -0.09656,-0.834105 -0.307822,-1.645035 -0.603575,-2.419563 -0.597538,-1.572215 -1.517991,-2.94914 -2.504837,-4.249944 -0.187109,-0.244935 -0.503986,0.105919 -0.319895,0.350854 v 0 z"
     id="path24"
     style="stroke-width:0.316053" />
  <path
     class="cls-3"
     d="m 54.923957,76.915909 c 0.295753,2.197795 1.674921,4.028187 1.883155,6.249149 0.03017,0.314438 0.482861,0.317746 0.452681,0 -0.211251,-2.270614 -1.596455,-4.137415 -1.898243,-6.381545 -0.04225,-0.314439 -0.479844,-0.182048 -0.437593,0.132396 z"
     id="path25"
     style="stroke-width:0.316053" />
  <path
     class="cls-3"
     d="m 53.161517,79.987522 c -0.123732,0.645432 -0.117697,1.340521 -0.07243,1.995888 0.03923,0.565995 0.205215,1.15847 0.685057,1.449745 0.253502,0.155571 0.48286,-0.27472 0.229359,-0.430291 -0.386288,-0.235002 -0.455699,-0.754655 -0.470788,-1.194879 -0.02113,-0.559378 -0.03923,-1.138616 0.06639,-1.691376 0.06036,-0.31113 -0.377233,-0.443526 -0.437592,-0.132391 v 0 z"
     id="path26"
     style="stroke-width:0.316053" />
  <path
     class="cls-3"
     d="m 53.258089,80.116609 c -0.184089,0.638815 -0.05733,1.310737 0.169002,1.91645 0.22634,0.605715 0.552271,1.237912 0.899328,1.807212 0.159946,0.264805 0.552269,0.01652 0.392322,-0.251545 -0.313858,-0.516345 -0.606592,-1.062482 -0.829915,-1.631794 -0.211252,-0.53621 -0.356109,-1.131998 -0.190127,-1.707927 0.08752,-0.30451 -0.350074,-0.436901 -0.437592,-0.132396 v 0 z"
     id="path27"
     style="stroke-width:0.316053" />
  <path
     class="cls-3"
     d="m 52.9895,80.434361 c 0.319895,1.158475 0.497949,2.350052 0.525109,3.561487 0.0059,0.317753 0.458717,0.321062 0.452683,0 -0.03017,-1.251153 -0.211251,-2.495683 -0.540201,-3.693878 -0.08451,-0.304516 -0.522093,-0.17543 -0.437591,0.132391 z"
     id="path28"
     style="stroke-width:0.316053" />
  <path
     class="cls-3"
     d="m 52.657532,80.153018 c 0.150894,1.433202 0.688076,2.777027 1.560243,3.862688 0.193143,0.241627 0.513039,-0.112543 0.319895,-0.350853 -0.784649,-0.976427 -1.291652,-2.217648 -1.427456,-3.511835 -0.01509,-0.1357 -0.09355,-0.248244 -0.226341,-0.248244 -0.111661,0 -0.241431,0.115847 -0.226341,0.248244 z"
     id="path29"
     style="stroke-width:0.316053" />
  <path
     class="cls-3"
     d="m 53.430109,80.781907 c 0.449664,1.284253 0.983827,2.525468 1.605509,3.720352 0.144859,0.278042 0.534165,0.02651 0.392325,-0.25155 -0.600558,-1.155168 -1.12265,-2.359984 -1.560243,-3.601198 -0.102607,-0.294593 -0.5402,-0.165498 -0.437591,0.132396 z"
     id="path30"
     style="stroke-width:0.316053" />
  <path
     class="cls-3"
     d="m 53.662486,80.027245 c 0.244447,1.453054 0.579432,2.886251 0.998916,4.289665 0.09053,0.301197 0.528128,0.17212 0.437592,-0.132398 -0.419484,-1.403407 -0.754469,-2.83661 -0.998916,-4.289663 -0.05433,-0.314446 -0.488897,-0.182043 -0.437592,0.132396 z"
     id="path31"
     style="stroke-width:0.316053" />
  <path
     class="cls-3"
     d="m 53.333537,78.643696 c 0.458717,1.830396 1.065309,3.611131 1.807707,5.322361 0.123734,0.28796 0.516056,0.03642 0.392324,-0.251552 -0.72429,-1.674821 -1.312777,-3.415843 -1.759422,-5.203206 -0.07846,-0.307828 -0.513039,-0.175424 -0.437591,0.132397 v 0 z"
     id="path32"
     style="stroke-width:0.316053" />
  <path
     class="cls-3"
     d="m 55.04769,79.444693 c 0.522093,1.588772 0.835952,3.247049 0.923471,4.931794 0.01509,0.317753 0.46777,0.321063 0.45268,0 -0.08752,-1.731089 -0.401377,-3.435701 -0.938559,-5.064185 -0.0996,-0.297893 -0.537182,-0.168806 -0.437592,0.132391 z"
     id="path33"
     style="stroke-width:0.316053" />
  <path
     class="cls-3"
     d="m 55.995304,80.954029 c -0.193146,1.171709 -0.292735,2.35997 -0.286699,3.554848 0,0.317767 0.452682,0.321069 0.452682,0 -0.0032,-1.148541 0.0845,-2.290466 0.271608,-3.422457 0.05131,-0.311132 -0.38327,-0.446842 -0.437591,-0.132391 z"
     id="path34"
     style="stroke-width:0.316053" />
  <path
     class="cls-3"
     d="m 56.348395,80.596545 c 0.156929,0.992983 0.05433,2.012438 -0.271609,2.952462 -0.04225,0.125773 0.04829,0.271417 0.156931,0.304512 0.126749,0.03974 0.235392,-0.04632 0.277643,-0.17211 0.35611,-1.026085 0.443628,-2.138216 0.27161,-3.217255 -0.02113,-0.132396 -0.169001,-0.205217 -0.277646,-0.172116 -0.126751,0.03974 -0.178054,0.172116 -0.156929,0.304507 z"
     id="path35"
     style="stroke-width:0.316053" />
  <path
     class="cls-3"
     d="m 56.51136,81.142692 c 0.159947,0.883751 0.04829,1.817145 -0.316877,2.624766 -0.129768,0.284652 0.262555,0.536211 0.392324,0.251559 0.419485,-0.933401 0.546236,-1.985958 0.362144,-3.008732 -0.05733,-0.314439 -0.491913,-0.182043 -0.437591,0.132407 z"
     id="path36"
     style="stroke-width:0.316053" />
  <path
     class="cls-3"
     d="m 55.805178,81.142692 c 0.05433,0.800999 0.02415,1.608626 -0.09355,2.399691 -0.02113,0.132397 0.03017,0.268103 0.15693,0.304513 0.108643,0.03314 0.259536,-0.03974 0.277644,-0.172116 0.12675,-0.837407 0.165984,-1.684746 0.108644,-2.532088 -0.0091,-0.132407 -0.09658,-0.248248 -0.226341,-0.248248 -0.114679,0 -0.235394,0.112544 -0.226342,0.248248 v 0 z"
     id="path37"
     style="stroke-width:0.316053" />
  <path
     class="cls-3"
     d="m 55.500372,80.503877 c 0,0.853954 0,1.707917 0,2.56188 0,0.321062 0.45268,0.321062 0.45268,0 0,-0.853963 0,-1.707926 0,-2.56188 0,-0.321061 -0.45268,-0.321061 -0.45268,0 z"
     id="path38"
     style="stroke-width:0.316053" />
  <path
     class="cls-3"
     d="m 55.379657,80.182816 c 0.05131,1.175015 -0.09355,2.340112 -0.428539,3.45556 -0.09053,0.304518 0.347055,0.433593 0.437593,0.132397 0.347056,-1.155166 0.497949,-2.373219 0.446644,-3.587957 -0.01509,-0.317753 -0.46777,-0.321069 -0.45268,0 v 0 z"
     id="path39"
     style="stroke-width:0.316053" />
  <path
     class="cls-3"
     d="m 54.52258,80.821626 c 0.08451,1.098897 0.105626,2.201103 0.06337,3.299994 -0.01206,0.321069 0.44061,0.317759 0.452682,0 0.04225,-1.102199 0.02113,-2.201097 -0.06338,-3.299994 -0.02415,-0.314445 -0.476824,-0.317749 -0.452681,0 z"
     id="path40"
     style="stroke-width:0.316053" />
  <path
     class="cls-3"
     d="m 54.000487,78.80257 c -0.169002,1.37693 -0.08148,2.773716 0.277645,4.107615 0.08148,0.304512 0.519076,0.175431 0.437591,-0.132397 -0.334983,-1.244528 -0.434574,-2.55526 -0.277643,-3.842822 0.01509,-0.132396 -0.03017,-0.264793 -0.156931,-0.304512 -0.105625,-0.03308 -0.262554,0.03974 -0.277644,0.172116 v 0 z"
     id="path41"
     style="stroke-width:0.316053" />
  <path
     class="cls-3"
     d="m 53.888826,78.421923 c -0.102608,1.588771 0.0513,3.18747 0.446645,4.719957 0.07847,0.307832 0.516057,0.175435 0.437593,-0.132391 -0.386289,-1.492779 -0.52813,-3.038512 -0.428539,-4.587566 0.02113,-0.317747 -0.431556,-0.317747 -0.452682,0 v 0 z"
     id="path42"
     style="stroke-width:0.316053" />
  <path
     class="cls-3"
     d="m 53.716806,78.551016 c 0.159949,1.598693 0.446647,3.177527 0.863115,4.716647 0.08148,0.304513 0.519073,0.175424 0.437591,-0.132391 -0.404396,-1.499409 -0.691093,-3.031898 -0.848024,-4.587563 -0.03017,-0.314445 -0.485878,-0.317754 -0.452682,0 v 0 z"
     id="path43"
     style="stroke-width:0.316053" />
  <path
     class="cls-4"
     d="m 54.232864,75.661447 c 0.697129,1.052561 1.134721,2.297092 1.252418,3.591277 0.01509,0.158875 0.241431,0.158875 0.226341,0 -0.120716,-1.337213 -0.561324,-2.628091 -1.282597,-3.71705 -0.08451,-0.129088 -0.280663,-0.0031 -0.196162,0.125773 z"
     id="path44"
     style="stroke-width:0.316053" />
  <path
     class="cls-4"
     d="m 54.066881,76.988728 c -0.0996,0.235008 -0.181074,0.483251 -0.232377,0.734803 -0.05131,0.251556 -0.09959,0.532901 -0.06036,0.787768 0.03923,0.254862 0.211251,0.460076 0.350073,0.658667 0.156929,0.225076 0.313861,0.450157 0.467771,0.675231 0.03621,0.05295 0.09658,0.08274 0.153913,0.04302 0.04829,-0.02979 0.07846,-0.115852 0.03923,-0.168806 -0.144858,-0.208525 -0.286699,-0.41374 -0.431556,-0.622271 -0.07243,-0.102604 -0.144858,-0.20521 -0.21427,-0.311123 -0.06035,-0.08938 -0.117696,-0.185363 -0.138821,-0.294592 -0.02113,-0.109221 -0.01509,-0.231692 0,-0.34423 0.01509,-0.112538 0.03017,-0.231692 0.05433,-0.347539 0.04829,-0.238317 0.117698,-0.470015 0.211251,-0.688472 0.02716,-0.05953 0.01509,-0.132396 -0.03923,-0.1688 -0.04829,-0.02979 -0.12977,-0.01652 -0.153911,0.04302 v 0 z"
     id="path45"
     style="stroke-width:0.316053" />
  <path
     class="cls-4"
     d="m 53.30034,78.835668 c -0.117697,0.721569 0.144857,1.426579 0.537182,1.992574 0.111662,0.158879 0.232376,0.311137 0.359127,0.460084 0.0996,0.115846 0.259537,-0.05953 0.159947,-0.175424 -0.503984,-0.585862 -0.974773,-1.363693 -0.838969,-2.211037 0.01206,-0.0662 -0.01509,-0.132396 -0.07846,-0.152249 -0.05433,-0.01653 -0.129768,0.01987 -0.138822,0.08605 z"
     id="path46"
     style="stroke-width:0.316053" />
  <path
     class="cls-4"
     d="m 55.651266,80.536967 c 0.162966,0.387268 0.32593,0.777836 0.482861,1.168413 0.144858,0.357467 0.316876,0.731488 0.304804,1.135301 -0.0059,0.158881 0.220306,0.158881 0.22634,0 0.01206,-0.433599 -0.162964,-0.830789 -0.316876,-1.218051 -0.162966,-0.407119 -0.328949,-0.810938 -0.497949,-1.21143 -0.02716,-0.05953 -0.105626,-0.07614 -0.153912,-0.04302 -0.05734,0.03644 -0.06639,0.109217 -0.03924,0.168801 v 0 z"
     id="path47"
     style="stroke-width:0.316053" />
  <path
     class="cls-4"
     d="m 54.498436,82.493137 c 0.08752,0.347544 0.241431,0.668607 0.446646,0.94995 0.05733,0.07613 0.117698,0.148947 0.181074,0.218458 0.04225,0.04631 0.117696,0.04966 0.159947,0 0.04225,-0.04966 0.04527,-0.125779 0,-0.175424 -0.05433,-0.05953 -0.108645,-0.122471 -0.15693,-0.185357 -0.01207,-0.01653 -0.02416,-0.02979 -0.0332,-0.04631 -0.0059,-0.0064 -0.01207,-0.01322 -0.01509,-0.02321 0,0 0.01206,0.01653 0.0059,0.0063 -0.0032,-0.0063 -0.0091,-0.01322 -0.01206,-0.01987 -0.02113,-0.03315 -0.04527,-0.06624 -0.0664,-0.102603 -0.04224,-0.06954 -0.08148,-0.142336 -0.117698,-0.218458 -0.01811,-0.03643 -0.03318,-0.07284 -0.0513,-0.11255 -0.0091,-0.01653 -0.01509,-0.03643 -0.02113,-0.05295 0,0 -0.01206,-0.02321 -0.0091,-0.02651 0,0 0.01206,0.0298 0,0.0031 0,-0.0063 -0.0032,-0.01 -0.0059,-0.01653 -0.0332,-0.08937 -0.06035,-0.178727 -0.08451,-0.271411 -0.01509,-0.06294 -0.08148,-0.10592 -0.138823,-0.08605 -0.05734,0.01987 -0.09656,0.08605 -0.07846,0.152255 v 0 z"
     id="path48"
     style="stroke-width:0.316053" />
  <path
     class="cls-4"
     d="m 54.92094,80.887826 c -0.01811,0.41705 0.07846,0.840717 0.274627,1.201503 0.05733,0.102615 0.120715,0.201901 0.193144,0.294579 0.03924,0.04966 0.120714,0.04631 0.159947,0 0.04527,-0.05295 0.04224,-0.122465 0,-0.175417 -0.0091,-0.01323 -0.01811,-0.02315 -0.02716,-0.03644 0,0 -0.02716,-0.03974 -0.01509,-0.01993 -0.01811,-0.02315 -0.0332,-0.04966 -0.05131,-0.07613 -0.03321,-0.04966 -0.06338,-0.102615 -0.09054,-0.158882 -0.02716,-0.05623 -0.05433,-0.109227 -0.07544,-0.165495 0,-0.0031 -0.01811,-0.04631 -0.0091,-0.02315 -0.0059,-0.01322 -0.01207,-0.02979 -0.01509,-0.04302 -0.0091,-0.02979 -0.02113,-0.05953 -0.03017,-0.08606 -0.03621,-0.11915 -0.06036,-0.238304 -0.07846,-0.360775 0.0032,0.02651 0,-0.01987 0,-0.02321 0,-0.01653 0,-0.02979 -0.0032,-0.04632 0,-0.02979 -0.0032,-0.06294 -0.0059,-0.09268 0,-0.06294 0,-0.122464 0,-0.185357 0,-0.06623 -0.05433,-0.125766 -0.114679,-0.125766 -0.06337,0 -0.108644,0.05295 -0.114679,0.125766 v 0 z"
     id="path49"
     style="stroke-width:0.316053" />
  <path
     class="cls-4"
     d="m 56.173358,83.651618 -0.03017,0.03308 c 0,0 -0.01811,0.02321 -0.02415,0.03974 -0.0059,0.01323 -0.0091,0.02979 -0.0091,0.04631 0,0.01653 0,0.03308 0.0091,0.04631 0.0059,0.01653 0.01206,0.0298 0.02415,0.03974 l 0.02416,0.01981 c 0.01812,0.01 0.03622,0.01653 0.05733,0.01653 h 0.03017 c 0.01811,-0.01 0.03621,-0.01993 0.05131,-0.03643 l 0.03017,-0.03314 c 0,0 0.01811,-0.02315 0.02416,-0.03974 0.0059,-0.01322 0.0091,-0.02979 0.0091,-0.04631 0,-0.01653 0,-0.03308 -0.0091,-0.04632 -0.0059,-0.01653 -0.01207,-0.02979 -0.02416,-0.03974 l -0.02414,-0.01981 c -0.01811,-0.01 -0.03621,-0.01653 -0.05733,-0.01653 h -0.03017 c -0.01811,0.01 -0.03621,0.01987 -0.0513,0.03645 z"
     id="path50"
     style="stroke-width:0.316053" />
</svg>
