<?xml version="1.0" encoding="UTF-8" standalone="no"?>
<svg
   viewBox="0 0 31.671395 27.991106"
   version="1.1"
   id="svg36"
   width="31.671396"
   height="27.991106"
   xmlns="http://www.w3.org/2000/svg"
   xmlns:svg="http://www.w3.org/2000/svg">
  <defs
     id="defs1">
    <style
       id="style1">
      .cls-1 {
        fill: #194584;
      }

      .cls-2 {
        fill: #1c4da3;
      }

      .cls-3 {
        fill: #fff;
      }

      .cls-4 {
        fill: #3b82f6;
      }

      .cls-5 {
        fill: #2563eb;
      }

      .cls-6 {
        stroke: #2563eb;
        stroke-width: .25px;
      }

      .cls-6, .cls-7, .cls-8 {
        fill: none;
        stroke-miterlimit: 10;
      }

      .cls-7 {
        stroke-linecap: round;
        stroke-width: 3px;
      }

      .cls-7, .cls-8 {
        stroke: #fff;
      }

      .cls-8 {
        stroke-width: 10px;
      }

      .cls-9 {
        fill: #21589b;
      }

      .cls-10 {
        fill: #2c73f2;
      }
    </style>
  </defs>
  <g
     id="Capa_3"
     data-name="Capa 3"
     transform="scale(0.02830558)">
    <line
       class="cls-6"
       x1="143.17"
       y1="371.14001"
       x2="142.8"
       y2="370.98999"
       id="line1" />
  </g>
  <g
     id="Capa_7"
     data-name="Capa 7"
     transform="scale(0.02830558)">
    <g
       id="g36">
      <polygon
         class="cls-9"
         points="979.37,370.69 979.91,776.87 561.34,988.89 560.95,535.41 561.34,535.56 "
         id="polygon1" />
      <polygon
         class="cls-5"
         points="143.17,295.41 560.88,455.42 560.95,535.41 143.17,371.14 "
         id="polygon2" />
      <polygon
         class="cls-5"
         points="560.88,428.52 109.88,255.75 109.87,255.75 35.24,227.16 0,213.66 561.34,0 1118.91,214.26 1086.58,227.15 1011.99,255.72 979.22,268.27 "
         id="polygon3" />
      <polygon
         class="cls-10"
         points="0,240.57 0,213.66 35.24,227.16 109.87,255.75 109.88,255.75 560.88,428.52 561.01,455.38 561,455.38 560.88,455.42 143.17,295.41 "
         id="polygon4" />
      <polygon
         class="cls-1"
         points="979.28,295.16 979.35,352.13 979.37,370.69 561.34,535.56 560.95,535.41 560.88,455.42 561,455.38 561.01,455.38 "
         id="polygon5" />
      <polygon
         class="cls-2"
         points="560.88,428.52 979.22,268.27 1011.99,255.72 1086.58,227.15 1118.91,214.26 1118.91,241.17 1047.21,269.14 979.28,295.16 561.01,455.38 "
         id="polygon6" />
      <polygon
         class="cls-4"
         points="143.17,371.14 560.95,535.41 561.34,988.89 143.17,777.44 "
         id="polygon7" />
      <ellipse
         class="cls-2"
         cx="559.46002"
         cy="214.25999"
         rx="51.189999"
         ry="21.280001"
         id="ellipse7" />
      <path
         class="cls-3"
         d="m 397.16,704.25 c 0,36.41 -24.18,54.81 -53.68,41.26 -29.16,-13.39 -52.55,-53.02 -52.55,-88.66 0,-35.64 23.39,-54.4 52.55,-41.77 29.5,12.78 53.68,52.76 53.68,89.17 z"
         id="path7" />
      <line
         class="cls-8"
         x1="341.89999"
         y1="681.76001"
         x2="343.26001"
         y2="541.89001"
         id="line7" />
      <line
         class="cls-8"
         x1="341.89999"
         y1="681.76001"
         x2="420.07999"
         y2="821.66998"
         id="line8" />
      <line
         class="cls-8"
         x1="341.89999"
         y1="681.76001"
         x2="256.47"
         y2="738.63"
         id="line9" />
      <line
         class="cls-8"
         x1="234.21001"
         y1="580.21002"
         x2="341.89999"
         y2="681.76001"
         id="line10" />
      <line
         class="cls-8"
         x1="445.78"
         y1="643.57001"
         x2="341.89999"
         y2="681.76001"
         id="line11" />
      <path
         class="cls-3"
         d="m 257.88,591.67 c 0,15.06 -10.69,22.58 -23.8,16.84 -13.03,-5.71 -23.54,-22.38 -23.54,-37.27 0,-14.89 10.51,-22.49 23.54,-16.95 13.11,5.57 23.8,22.32 23.8,37.38 z"
         id="path11" />
      <path
         class="cls-3"
         d="m 317.53,526.42 c 0,15.32 11.12,32.47 24.91,38.35 13.88,5.91 25.19,-1.83 25.19,-17.32 0,-15.49 -11.32,-32.73 -25.19,-38.47 -13.87,-5.74 -24.91,2.12 -24.91,17.44 z"
         id="path12" />
      <path
         class="cls-3"
         d="m 420.92,631.59 c 0,15.61 11.55,33.36 25.88,39.68 14.42,6.36 26.18,-1.25 26.18,-17.05 0,-15.8 -11.76,-33.63 -26.18,-39.81 -14.42,-6.18 -25.88,1.57 -25.88,17.18 z"
         id="path13" />
      <path
         class="cls-3"
         d="m 232.47,727.27 c 0,14.99 10.65,32.26 23.86,38.59 13.29,6.38 24.13,-0.72 24.13,-15.88 0,-15.16 -10.84,-32.51 -24.13,-38.72 -13.21,-6.17 -23.86,1.01 -23.86,16.01 z"
         id="path14" />
      <path
         class="cls-3"
         d="m 392.27,802.47 c 0,16.78 12.34,36.32 27.65,43.69 15.4,7.41 27.97,-0.3 27.97,-17.28 0,-16.98 -12.56,-36.62 -27.97,-43.84 -15.31,-7.17 -27.65,0.65 -27.65,17.43 z"
         id="path15" />
      <polyline
         class="cls-7"
         points="559.46 214.26 634.03 400.51 634.92 721.16"
         id="polyline15" />
      <circle
         class="cls-3"
         cx="634.91998"
         cy="727.87"
         r="12.61"
         id="circle15" />
      <path
         class="cls-3"
         d="m 629.49,738.39 c -0.47,5.53 -2.72,10.69 -4.84,15.74 -2.12,5.05 -3.85,9.64 -4.55,14.85 -1.27,9.41 0.55,19.12 4.94,27.52 2.49,4.75 5.85,9.06 9.89,12.6 l 1.82,-2.36 c -3.07,-1.86 -4.77,-5.26 -4.54,-8.83 l -2.8,0.76 c 2.18,3.6 5.22,6.55 8.89,8.6 1.04,0.58 2.72,-0.41 2.2,-1.69 -1.28,-3.21 -2.56,-6.41 -3.83,-9.62 l -2.2,1.69 c 4.93,2.76 9.5,6.07 13.64,9.92 l 1.82,-2.36 c -3.79,-2.28 -6.55,-5.89 -7.77,-10.15 l -2.51,1.46 c 2.31,1.88 4.61,3.77 6.92,5.65 1.12,0.91 2.89,0.09 2.51,-1.46 -0.67,-2.67 -1.34,-5.35 -2.01,-8.02 l -2.2,1.69 c 3.34,2.2 6.48,4.65 9.42,7.36 1.42,1.31 3.48,-0.74 2.12,-2.12 -5.09,-5.16 -7.49,-12.71 -6.18,-19.87 l -2.2,0.9 c 3.61,2.38 6.52,5.59 8.58,9.39 0.79,1.46 3.37,0.45 2.74,-1.16 -7.28,-18.71 -12.5,-38.18 -15.54,-58.02 -0.29,-1.9 -3.18,-1.09 -2.89,0.8 3.04,19.84 8.26,39.31 15.54,58.02 l 2.74,-1.16 c -2.31,-4.25 -5.63,-7.81 -9.66,-10.46 -0.76,-0.5 -2.03,-0.03 -2.2,0.9 -1.5,8.23 1.07,16.81 6.96,22.78 l 2.12,-2.12 c -3.12,-2.88 -6.47,-5.5 -10.03,-7.83 -1.13,-0.75 -2.51,0.48 -2.2,1.69 0.67,2.67 1.34,5.35 2.01,8.02 l 2.51,-1.46 c -2.31,-1.88 -4.61,-3.77 -6.92,-5.65 -1.09,-0.89 -2.95,-0.09 -2.51,1.46 1.42,5 4.69,9.26 9.14,11.95 1.44,0.87 3.08,-1.18 1.82,-2.36 -4.32,-4.02 -9.1,-7.51 -14.25,-10.39 -1.04,-0.58 -2.71,0.41 -2.2,1.69 1.28,3.21 2.56,6.41 3.83,9.62 l 2.2,-1.69 c -3.24,-1.8 -5.9,-4.35 -7.82,-7.52 -0.8,-1.32 -2.7,-0.7 -2.8,0.76 -0.3,4.6 2.1,9.04 6.02,11.42 1.43,0.86 3.12,-1.22 1.82,-2.36 -6.96,-6.09 -11.62,-14.42 -13.49,-23.46 -0.93,-4.51 -1.14,-9.2 -0.57,-13.77 0.62,-4.97 2.38,-9.63 4.29,-14.22 2.32,-5.55 4.69,-11.08 5.2,-17.14 0.16,-1.92 -2.84,-1.91 -3,0 v 0 z"
         id="path16" />
      <path
         class="cls-3"
         d="m 637.65,738.19 c 1.09,4.44 2.7,8.75 4.82,12.81 2.23,4.27 4.96,8.29 7.52,12.36 1.02,1.63 3.62,0.13 2.59,-1.51 -2.48,-3.95 -5.12,-7.84 -7.31,-11.96 -2.19,-4.12 -3.66,-8.15 -4.73,-12.5 -0.46,-1.87 -3.35,-1.08 -2.89,0.8 z"
         id="path17" />
      <path
         class="cls-3"
         d="m 636.48,739.61 c 1.85,8.47 6.05,16.32 12.02,22.61 1.33,1.4 3.45,-0.72 2.12,-2.12 -5.63,-5.93 -9.51,-13.3 -11.25,-21.28 -0.41,-1.89 -3.3,-1.09 -2.89,0.8 v 0 z"
         id="path18" />
      <path
         class="cls-3"
         d="m 633.43,739.88 c -0.81,4.67 1.06,9.17 2.61,13.5 1.55,4.33 3.18,8.27 5.65,11.95 1.07,1.59 3.67,0.09 2.59,-1.51 -2.26,-3.35 -3.84,-7.04 -5.21,-10.83 -1.37,-3.79 -3.47,-8.2 -2.75,-12.31 0.33,-1.89 -2.56,-2.7 -2.89,-0.8 z"
         id="path19" />
      <path
         class="cls-3"
         d="m 633.05,753.5 c 2.42,6.27 5.82,12.05 10.11,17.22 0.52,0.62 1.59,0.54 2.12,0 0.62,-0.62 0.52,-1.5 0,-2.12 -3.94,-4.75 -7.11,-10.15 -9.33,-15.9 -0.29,-0.76 -1.01,-1.28 -1.85,-1.05 -0.72,0.2 -1.34,1.09 -1.05,1.85 z"
         id="path20" />
      <path
         class="cls-3"
         d="m 631.53,758.77 c -0.43,1.9 0.19,3.66 1.15,5.3 0.91,1.54 1.94,3.02 2.98,4.47 2.12,2.93 4.44,5.72 6.95,8.33 1.34,1.39 3.46,-0.73 2.12,-2.12 -2.19,-2.28 -4.26,-4.69 -6.13,-7.24 -0.94,-1.29 -1.85,-2.6 -2.71,-3.95 -0.72,-1.13 -1.8,-2.57 -1.48,-4 0.43,-1.88 -2.46,-2.68 -2.89,-0.8 v 0 z"
         id="path21" />
      <path
         class="cls-3"
         d="m 632.66,769.17 c 2.79,5.34 6.69,10.1 11.4,13.86 0.63,0.51 1.5,0.62 2.12,0 0.52,-0.52 0.64,-1.61 0,-2.12 -4.53,-3.62 -8.25,-8.11 -10.93,-13.25 -0.89,-1.71 -3.48,-0.2 -2.59,1.51 z"
         id="path22" />
      <path
         class="cls-3"
         d="m 632.54,773.61 c 3.16,5.25 6.82,10.19 10.91,14.76 1.29,1.44 3.4,-0.69 2.12,-2.12 -3.92,-4.38 -7.4,-9.12 -10.44,-14.16 -1,-1.65 -3.59,-0.15 -2.59,1.51 v 0 z"
         id="path23" />
      <path
         class="cls-3"
         d="m 632.69,776.21 c 0.93,2.79 2.87,5.09 4.6,7.4 1.88,2.5 3.79,4.97 5.74,7.41 0.51,0.63 1.59,0.53 2.12,0 0.63,-0.63 0.51,-1.49 0,-2.12 -1.79,-2.24 -3.55,-4.51 -5.28,-6.8 -1.55,-2.06 -3.47,-4.2 -4.3,-6.69 -0.61,-1.82 -3.51,-1.04 -2.89,0.8 v 0 z"
         id="path24" />
      <path
         class="cls-3"
         d="m 635.38,782.43 c 1.6,4.69 4.39,8.93 8.12,12.19 0.61,0.53 1.52,0.6 2.12,0 0.54,-0.54 0.61,-1.59 0,-2.12 -3.35,-2.92 -5.92,-6.67 -7.35,-10.86 -0.26,-0.77 -1.03,-1.27 -1.85,-1.05 -0.75,0.21 -1.31,1.08 -1.05,1.85 v 0 z"
         id="path25" />
      <path
         class="cls-3"
         d="m 640.77,781.62 c 3.01,3.42 6.12,6.75 9.34,9.98 0.57,0.57 1.55,0.57 2.12,0 0.57,-0.57 0.57,-1.55 0,-2.12 -3.22,-3.23 -6.33,-6.56 -9.34,-9.98 -0.53,-0.61 -1.57,-0.55 -2.12,0 -0.6,0.6 -0.54,1.51 0,2.12 z"
         id="path26" />
      <path
         class="cls-3"
         d="m 642.42,779.53 c 3.79,4.3 7.32,8.81 10.58,13.52 0.46,0.66 1.31,0.97 2.05,0.54 0.66,-0.39 1,-1.38 0.54,-2.05 -3.41,-4.92 -7.1,-9.64 -11.05,-14.13 -0.54,-0.61 -1.57,-0.55 -2.12,0 -0.6,0.6 -0.54,1.51 0,2.12 z"
         id="path27" />
      <path
         class="cls-3"
         d="m 643.77,786.94 c 2.43,2.29 4.76,4.67 7,7.15 0.53,0.58 1.59,0.58 2.12,0 0.57,-0.62 0.56,-1.5 0,-2.12 -2.24,-2.48 -4.57,-4.86 -7,-7.15 -0.57,-0.54 -1.56,-0.61 -2.12,0 -0.56,0.61 -0.61,1.55 0,2.12 z"
         id="path28" />
      <path
         class="cls-3"
         d="m 644.71,789.47 c 1.23,0.85 2.45,1.72 3.65,2.62 0.29,0.22 0.59,0.44 0.88,0.67 0.02,0.02 0.24,0.18 0.12,0.09 -0.12,-0.09 0.1,0.08 0.12,0.09 0.15,0.11 0.29,0.23 0.44,0.34 0.6,0.47 1.19,0.95 1.78,1.43 0.59,0.48 1.54,0.64 2.12,0 0.5,-0.55 0.65,-1.59 0,-2.12 -2.45,-2.01 -4.98,-3.92 -7.59,-5.71 -0.65,-0.45 -1.69,-0.14 -2.05,0.54 -0.4,0.76 -0.15,1.58 0.54,2.05 v 0 z"
         id="path29" />
      <path
         class="cls-3"
         d="m 643.25,790.14 c 1.81,2.08 3.62,4.17 5.43,6.25 0.52,0.59 1.6,0.57 2.12,0 0.58,-0.63 0.55,-1.49 0,-2.12 -1.81,-2.08 -3.62,-4.17 -5.43,-6.25 -0.52,-0.59 -1.6,-0.57 -2.12,0 -0.58,0.63 -0.55,1.49 0,2.12 z"
         id="path30" />
      <path
         class="cls-3"
         d="m 643.78,793.88 c 1.63,2.09 3.45,4.02 5.45,5.76 0.59,0.52 1.55,0.62 2.12,0 0.52,-0.57 0.63,-1.57 0,-2.12 -1.99,-1.75 -3.82,-3.68 -5.45,-5.76 -0.22,-0.28 -0.72,-0.44 -1.06,-0.44 -0.37,0 -0.81,0.16 -1.06,0.44 -0.25,0.28 -0.46,0.66 -0.44,1.06 0.02,0.42 0.18,0.73 0.44,1.06 z"
         id="path31" />
      <path
         class="cls-3"
         d="m 631.73,743.8 c 1.63,6.25 3.26,12.51 4.89,18.76 0.67,2.59 1.35,5.17 2.02,7.76 0.92,3.52 1.12,4.19 0.07,7.54 -1.11,3.53 1.95,7.87 5.79,7.6 2.06,-0.15 3.56,-0.43 5.3,-1.6 4.55,-3.03 3.34,-11.68 -3.03,-11.18 -3.95,0.31 -6.1,2.01 -7.79,5.51 -0.71,1.47 -1.24,3.07 -1.6,4.65 -0.4,1.8 0.02,4.09 -0.42,5.75 l 5.79,-4.4 c 2.85,-0.33 1.6,-0.31 1.17,-2.93 -0.16,-1.01 -0.18,-2.05 -0.24,-3.07 -0.17,-3.28 -0.26,-6.55 -0.54,-9.82 -0.58,-6.75 -1.47,-13.47 -2.27,-20.19 -0.67,-5.67 -7.81,-8.47 -11.18,-3.03 -6.9,11.16 -5.15,23.96 -5.85,36.44 h 12 c -0.01,-4.84 1.04,-10.42 -2.18,-14.4 -1.23,-1.53 -4.02,-2.19 -5.84,-1.54 -6.07,2.17 -5.75,7.96 -5.22,13.46 0.56,5.81 1.51,11.5 4.98,16.35 4.46,6.22 14.87,0.24 10.36,-6.06 -2.53,-3.53 -5.15,-11.78 -3.42,-16.12 l -4.19,4.19 0.68,-0.24 -5.84,-1.54 0.33,0.41 -1.76,-4.24 c 0.39,3.17 0.08,6.56 0.09,9.75 0.02,7.77 11.57,7.67 12,0 0.57,-10.16 -1.41,-21.3 4.21,-30.38 -3.73,-1.01 -7.45,-2.02 -11.18,-3.03 1.18,10.01 2.26,19.95 2.8,30.01 0.32,5.96 2.32,19.01 11.06,18 2.65,-0.31 5.05,-1.65 5.79,-4.4 0.74,-2.75 -0.51,-6.57 1.44,-8.79 l -4.24,1.76 1.04,-0.08 c -1.01,-3.73 -2.02,-7.45 -3.03,-11.18 l 0.76,-0.04 5.79,7.6 c 0.93,-2.97 1.89,-5.04 1.36,-8.24 -0.56,-3.36 -1.69,-6.69 -2.55,-9.99 -1.93,-7.4 -3.86,-14.8 -5.79,-22.21 -1.95,-7.47 -13.53,-4.3 -11.57,3.19 v 0 z"
         id="path32" />
      <path
         class="cls-3"
         d="m 635.84,800.17 c -3.69,-3.47 -6.59,-7.74 -8.3,-12.52 -1.71,-4.78 -2.38,-10.06 -4.99,-14.58 -0.72,-1.25 -2.67,-0.12 -1.94,1.14 2.71,4.69 3.2,10.21 5.2,15.18 1.89,4.69 4.76,8.9 8.44,12.36 1.05,0.99 2.65,-0.6 1.59,-1.59 v 0 z"
         id="path33" />
      <path
         class="cls-3"
         d="m 644.15,750.14 c 1.45,0 1.45,-2.25 0,-2.25 -1.45,0 -1.45,2.25 0,2.25 z"
         id="path34" />
      <path
         class="cls-3"
         d="m 644.45,750.92 c 1.59,3.17 3.39,6.23 5.4,9.15 0.34,0.5 0.99,0.73 1.54,0.4 0.49,-0.29 0.75,-1.04 0.4,-1.54 -2.01,-2.92 -3.82,-5.98 -5.4,-9.15 -0.27,-0.54 -1.04,-0.7 -1.54,-0.4 -0.55,0.32 -0.68,0.99 -0.4,1.54 z"
         id="path35" />
      <path
         class="cls-3"
         d="m 642.62,748.39 c 3.35,7.28 4.61,15.64 10.21,21.71 0.98,1.07 2.57,-0.53 1.59,-1.59 -5.41,-5.86 -6.62,-14.22 -9.86,-21.25 -0.6,-1.31 -2.54,-0.17 -1.94,1.14 v 0 z"
         id="path36" />
    </g>
  </g>
</svg>
